<?xml version="1.0" encoding="UTF-8" standalone="no"?>
<svg
   xmlns:dc="http://purl.org/dc/elements/1.1/"
   xmlns:cc="http://creativecommons.org/ns#"
   xmlns:rdf="http://www.w3.org/1999/02/22-rdf-syntax-ns#"
   xmlns:svg="http://www.w3.org/2000/svg"
   xmlns="http://www.w3.org/2000/svg"
   xmlns:sodipodi="http://sodipodi.sourceforge.net/DTD/sodipodi-0.dtd"
   xmlns:inkscape="http://www.inkscape.org/namespaces/inkscape"
   width="29.414989mm"
   height="24.806314mm"
   viewBox="0 0 29.41499 24.806315"
   version="1.1"
   id="svg8"
   inkscape:export-filename="/Users/ nudiebranch/bitmap.png"
   inkscape:export-xdpi="96"
   inkscape:export-ydpi="96"
   inkscape:version="1.0.1 (c497b03c, 2020-09-10)"
   sodipodi:docname="back.svg">
  <defs
     id="defs2" />
  <sodipodi:namedview
     id="base"
     pagecolor="#ffffff"
     bordercolor="#666666"
     borderopacity="1.0"
     inkscape:pageopacity="0.0"
     inkscape:pageshadow="2"
     inkscape:zoom="5.4022853"
     inkscape:cx="66.820712"
     inkscape:cy="51.483357"
     inkscape:document-units="mm"
     inkscape:current-layer="layer1"
     inkscape:document-rotation="0"
     showgrid="false"
     inkscape:snap-global="false"
     fit-margin-top="0"
     fit-margin-left="0"
     fit-margin-right="0"
     fit-margin-bottom="0"
     inkscape:window-width="1600"
     inkscape:window-height="900"
     inkscape:window-x="1440"
     inkscape:window-y="0"
     inkscape:window-maximized="0" />
  <metadata
     id="metadata5">
    <rdf:RDF>
      <cc:Work
         rdf:about="">
        <dc:format>image/svg+xml</dc:format>
        <dc:type
           rdf:resource="http://purl.org/dc/dcmitype/StillImage" />
        <dc:title></dc:title>
      </cc:Work>
    </rdf:RDF>
  </metadata>
  <g
     inkscape:label="Layer 1"
     inkscape:groupmode="layer"
     id="layer1"
     transform="translate(-50.919332,-76.976173)">
    <g
       id="g92"
       transform="translate(6.0731548,-6.9067251)" />
    <g
       id="g182"
       transform="matrix(-1.3364872,0,0,1.3364872,121.7401,-35.905389)"
       style="fill:#ffffff;stroke:#000000;stroke-opacity:1">
      <path
         style="fill:#ffffff;fill-opacity:1;stroke:#000000;stroke-width:0.0422775;stroke-opacity:1"
         d="m 43.063566,84.524995 c 0,0.02416 0.126832,0.04228 0.295942,0.04228 0.16911,0 0.295943,0.01812 0.295943,0.04228 0,0.02325 0.09512,0.04228 0.211387,0.04228 0.116263,0 0.211387,0.01902 0.211387,0.04228 0,0.02325 0.09512,0.04228 0.211388,0.04228 0.116263,0 0.211387,0.01902 0.211387,0.04228 0,0.02325 0.05708,0.04228 0.126832,0.04228 0.06976,0 0.126833,0.01902 0.126833,0.04228 0,0.02325 0.0761,0.04228 0.16911,0.04228 0.09301,0 0.16911,0.01902 0.16911,0.04228 0,0.02325 0.05707,0.04228 0.126832,0.04228 0.06976,0 0.126833,0.01902 0.126833,0.04228 0,0.02325 0.05707,0.04228 0.126832,0.04228 0.06976,0 0.126832,0.01902 0.126832,0.04228 0,0.02325 0.03805,0.04228 0.08456,0.04228 0.04651,0 0.08455,0.01903 0.08455,0.04228 0,0.02325 0.03805,0.04228 0.08456,0.04228 0.04651,0 0.08456,0.01902 0.08456,0.04228 0,0.02325 0.03805,0.04228 0.08456,0.04228 0.0465,0 0.08455,0.01902 0.08455,0.04228 0,0.02325 0.03805,0.04228 0.08456,0.04228 0.04651,0 0.08456,0.01902 0.08456,0.04228 0,0.02325 0.03805,0.04228 0.08456,0.04228 0.0465,0 0.08455,0.01902 0.08455,0.04228 0,0.02325 0.03805,0.04228 0.08456,0.04228 0.04651,0 0.08456,0.01902 0.08456,0.04228 0,0.02325 0.03805,0.04228 0.08456,0.04228 0.0465,0 0.08455,0.01902 0.08455,0.04228 0,0.02325 0.03385,0.04228 0.07522,0.04228 0.04137,0 0.102647,0.03805 0.136166,0.08455 0.03352,0.04651 0.09059,0.08456 0.126832,0.08456 0.03624,0 0.09331,0.03805 0.126833,0.08455 0.03352,0.04651 0.08716,0.08455 0.119203,0.08455 0.03204,0 0.111576,0.05708 0.176739,0.126833 0.06516,0.06976 0.140619,0.126832 0.167678,0.126832 0.02706,0 0.141853,0.09512 0.255097,0.211388 0.113243,0.116263 0.227076,0.211387 0.252961,0.211387 0.02588,0 0.1784,0.133174 0.338923,0.295942 0.160524,0.162768 0.302292,0.295943 0.315041,0.295943 0.01275,0 0.02318,-0.03805 0.02318,-0.08455 0,-0.04651 0.01038,-0.08456 0.02306,-0.08456 0.04267,0 0.230604,0.207073 0.230604,0.254084 0,0.0256 0.114149,0.158583 0.253665,0.295523 0.139516,0.13694 0.253665,0.278573 0.253665,0.314739 0,0.03617 0.01902,0.06576 0.04228,0.06576 0.02325,0 0.04228,0.03385 0.04228,0.07522 0,0.04137 0.03805,0.102646 0.08456,0.136165 0.04651,0.03352 0.08456,0.09059 0.08456,0.126833 0,0.03624 0.03805,0.09331 0.08456,0.126832 0.0465,0.03352 0.08455,0.09479 0.08455,0.136166 0,0.04137 0.01902,0.07522 0.04228,0.07522 0.02325,0 0.04228,0.03805 0.04228,0.08456 0,0.0465 0.01902,0.08455 0.04228,0.08455 0.02325,0 0.04228,0.03385 0.04228,0.07522 0,0.04137 0.03805,0.102647 0.08455,0.136166 0.04651,0.03352 0.08456,0.09479 0.08456,0.136165 0,0.04137 0.01902,0.07522 0.04228,0.07522 0.02325,0 0.04228,0.03805 0.04228,0.08455 0,0.04651 0.01902,0.08456 0.04228,0.08456 0.02325,0 0.04228,0.03805 0.04228,0.08455 0,0.0465 0.01902,0.08455 0.04228,0.08455 0.02325,0 0.04228,0.05708 0.04228,0.126832 0,0.06976 0.01902,0.126833 0.04228,0.126833 0.02325,0 0.04228,0.03805 0.04228,0.08455 0,0.0465 0.01902,0.08455 0.04228,0.08455 0.02325,0 0.04228,0.03805 0.04228,0.08456 0,0.0465 0.01902,0.08455 0.04228,0.08455 0.02325,0 0.04228,0.03805 0.04228,0.08455 0,0.04651 0.01902,0.08456 0.04228,0.08456 0.02325,0 0.04228,0.0761 0.04228,0.169109 0,0.09301 0.01902,0.16911 0.04228,0.16911 0.02325,0 0.04228,0.03805 0.04228,0.08456 0,0.0465 0.01902,0.08455 0.04228,0.08455 0.02325,0 0.04228,0.0761 0.04228,0.16911 0,0.09301 0.01902,0.16911 0.04228,0.16911 0.02325,0 0.04228,0.0761 0.04228,0.16911 0,0.09301 0.01902,0.16911 0.04228,0.16911 0.02349,0 0.04228,0.11274 0.04228,0.253665 0,0.140924 0.01879,0.253664 0.04228,0.253664 0.02466,0 0.04228,0.140925 0.04228,0.33822 0,0.197295 0.01761,0.33822 0.04228,0.33822 0.02721,0 0.04228,0.436867 0.04228,1.226047 0,0.789179 -0.01506,1.226046 -0.04228,1.226046 -0.02416,0 -0.04228,0.126833 -0.04228,0.295943 0,0.16911 -0.01812,0.295942 -0.04228,0.295942 -0.02325,0 -0.04228,0.0761 -0.04228,0.16911 0,0.09301 -0.01902,0.16911 -0.04228,0.16911 -0.02325,0 -0.04228,0.0761 -0.04228,0.16911 0,0.09301 -0.01902,0.16911 -0.04228,0.16911 -0.02325,0 -0.04228,0.0761 -0.04228,0.16911 0,0.09301 -0.01902,0.169109 -0.04228,0.169109 -0.02325,0 -0.04228,0.05707 -0.04228,0.126833 0,0.06976 -0.01902,0.126832 -0.04228,0.126832 -0.02325,0 -0.04228,0.03805 -0.04228,0.08455 0,0.04651 -0.01902,0.08456 -0.04228,0.08456 -0.02325,0 -0.04228,0.05707 -0.04228,0.126833 0,0.06976 -0.01903,0.126832 -0.04228,0.126832 -0.02325,0 -0.04228,0.03805 -0.04228,0.08455 0,0.0465 -0.01902,0.08456 -0.04228,0.08456 -0.02325,0 -0.04228,0.03805 -0.04228,0.08455 0,0.0465 -0.01902,0.08455 -0.04228,0.08455 -0.02325,0 -0.04228,0.03805 -0.04228,0.08456 0,0.0465 -0.01902,0.08455 -0.04228,0.08455 -0.02325,0 -0.04228,0.03805 -0.04228,0.08455 0,0.04651 -0.01903,0.08456 -0.04228,0.08456 -0.02325,0 -0.04228,0.03805 -0.04228,0.08455 0,0.04651 -0.01902,0.08456 -0.04228,0.08456 -0.02325,0 -0.04228,0.03385 -0.04228,0.07522 0,0.04137 -0.03805,0.102647 -0.08456,0.136166 -0.0465,0.03352 -0.08455,0.09059 -0.08455,0.126832 0,0.03624 -0.03805,0.09331 -0.08456,0.126833 -0.04651,0.03352 -0.08455,0.09479 -0.08455,0.136165 0,0.04137 -0.01902,0.07522 -0.04228,0.07522 -0.02325,0 -0.04228,0.03042 -0.04228,0.06759 0,0.03718 -0.05708,0.120908 -0.126833,0.186072 -0.06976,0.06516 -0.126832,0.140114 -0.126832,0.166557 0,0.02644 -0.171224,0.21784 -0.380498,0.425328 -0.209273,0.207484 -0.380497,0.406514 -0.380497,0.442284 0,0.0358 -0.02959,0.065 -0.06576,0.065 -0.03617,0 -0.1778,0.11415 -0.31474,0.25367 -0.13694,0.13951 -0.27094,0.25366 -0.297778,0.25366 -0.02684,0 -0.102111,0.0571 -0.167274,0.12683 -0.06516,0.0698 -0.144696,0.12684 -0.176739,0.12684 -0.03204,0 -0.08568,0.038 -0.119204,0.0846 -0.03352,0.0465 -0.09059,0.0846 -0.126832,0.0846 -0.03624,0 -0.09331,0.038 -0.126832,0.0846 -0.03352,0.0465 -0.09059,0.0846 -0.126833,0.0846 -0.03624,0 -0.09331,0.038 -0.126832,0.0845 -0.03352,0.0465 -0.09479,0.0846 -0.136166,0.0846 -0.04137,0 -0.07522,0.019 -0.07522,0.0423 0,0.0233 -0.03385,0.0423 -0.07522,0.0423 -0.04137,0 -0.102647,0.038 -0.136166,0.0846 -0.03352,0.0465 -0.09479,0.0846 -0.136166,0.0846 -0.04137,0 -0.07522,0.019 -0.07522,0.0423 0,0.0233 -0.03805,0.0423 -0.08456,0.0423 -0.04651,0 -0.08456,0.019 -0.08456,0.0423 0,0.0233 -0.05707,0.0423 -0.126833,0.0423 -0.06976,0 -0.126832,0.019 -0.126832,0.0423 0,0.0233 -0.03805,0.0423 -0.08456,0.0423 -0.0465,0 -0.08456,0.019 -0.08456,0.0423 0,0.0233 -0.03805,0.0423 -0.08455,0.0423 -0.04651,0 -0.08456,0.019 -0.08456,0.0423 0,0.0233 -0.05707,0.0423 -0.126832,0.0423 -0.06976,0 -0.126833,0.019 -0.126833,0.0423 0,0.0233 -0.03805,0.0423 -0.08456,0.0423 -0.04651,0 -0.08456,0.019 -0.08456,0.0423 0,0.0232 -0.05707,0.0423 -0.126832,0.0423 -0.06976,0 -0.126832,0.019 -0.126832,0.0423 0,0.0233 -0.0761,0.0423 -0.16911,0.0423 -0.09301,0 -0.16911,0.019 -0.16911,0.0423 0,0.0232 -0.05707,0.0423 -0.126833,0.0423 -0.06976,0 -0.126832,0.019 -0.126832,0.0423 0,0.0233 -0.0761,0.0423 -0.16911,0.0423 -0.09301,0 -0.16911,0.019 -0.16911,0.0423 0,0.0233 -0.09512,0.0423 -0.211387,0.0423 -0.116263,0 -0.211388,0.019 -0.211388,0.0423 0,0.0233 -0.09512,0.0423 -0.211387,0.0423 -0.116263,0 -0.211387,-0.019 -0.211387,-0.0423 0,-0.0233 -0.0761,-0.0423 -0.16911,-0.0423 -0.09301,0 -0.16911,0.019 -0.16911,0.0423 0,0.0242 -0.126833,0.0423 -0.295942,0.0423 -0.16911,0 -0.295943,-0.0181 -0.295943,-0.0423 0,-0.0242 -0.126832,-0.0423 -0.295942,-0.0423 -0.16911,0 -0.295942,-0.0181 -0.295942,-0.0423 0,-0.0232 -0.05707,-0.0423 -0.126833,-0.0423 -0.06976,0 -0.126832,-0.019 -0.126832,-0.0423 0,-0.0233 -0.03805,-0.0423 -0.08456,-0.0423 -0.0465,0 -0.08456,-0.019 -0.08456,-0.0423 0,-0.0233 0.03805,-0.0423 0.08456,-0.0423 0.04651,0 0.08456,-0.0109 0.08456,-0.0242 0,-0.0619 -0.131558,-0.14495 -0.229506,-0.14495 -0.05979,0 -0.108714,-0.019 -0.108714,-0.0423 0,-0.0233 -0.03805,-0.0423 -0.08456,-0.0423 -0.0493,0 -0.08456,-0.0282 -0.08456,-0.0676 0,-0.0372 -0.05707,-0.12091 -0.126832,-0.18607 -0.06976,-0.0652 -0.126833,-0.14889 -0.126833,-0.18607 0,-0.0372 -0.01902,-0.0676 -0.04228,-0.0676 -0.02325,0 -0.04228,-0.0571 -0.04228,-0.12684 0,-0.0697 0.01903,-0.12683 0.04228,-0.12683 0.02325,0 0.04228,-0.038 0.04228,-0.0845 0,-0.0564 0.02819,-0.0846 0.08456,-0.0846 0.0465,0 0.08456,-0.019 0.08456,-0.0423 0,-0.0233 0.03805,-0.0423 0.08455,-0.0423 0.04651,0 0.08456,-0.019 0.08456,-0.0423 0,-0.0232 0.05708,-0.0423 0.126833,-0.0423 0.06976,0 0.126832,-0.019 0.126832,-0.0423 0,-0.025 0.155017,-0.0423 0.380497,-0.0423 0.22548,0 0.380497,-0.0172 0.380497,-0.0423 0,-0.0251 0.155018,-0.0423 0.380498,-0.0423 0.225479,0 0.380497,-0.0172 0.380497,-0.0423 0,-0.0232 0.09512,-0.0423 0.211387,-0.0423 0.116263,0 0.211388,-0.019 0.211388,-0.0423 0,-0.0233 0.0761,-0.0423 0.16911,-0.0423 0.09301,0 0.169109,-0.019 0.169109,-0.0423 0,-0.0233 0.05708,-0.0423 0.126833,-0.0423 0.06976,0 0.126832,-0.019 0.126832,-0.0423 0,-0.0233 0.05707,-0.0423 0.126833,-0.0423 0.06976,0 0.126832,-0.019 0.126832,-0.0423 0,-0.0233 0.05707,-0.0423 0.126833,-0.0423 0.06976,0 0.126832,-0.019 0.126832,-0.0423 0,-0.0232 0.03805,-0.0423 0.08456,-0.0423 0.0465,0 0.08456,-0.019 0.08456,-0.0423 0,-0.0233 0.05707,-0.0423 0.126832,-0.0423 0.06976,0 0.126833,-0.019 0.126833,-0.0423 0,-0.0233 0.03805,-0.0423 0.08456,-0.0423 0.0465,0 0.08455,-0.019 0.08455,-0.0423 0,-0.0232 0.03805,-0.0423 0.08456,-0.0423 0.04651,0 0.08456,-0.019 0.08456,-0.0423 0,-0.0233 0.03805,-0.0423 0.08455,-0.0423 0.04651,0 0.08456,-0.019 0.08456,-0.0423 0,-0.0233 0.03805,-0.0423 0.08456,-0.0423 0.04651,0 0.08456,-0.019 0.08456,-0.0423 0,-0.0233 0.03385,-0.0423 0.07522,-0.0423 0.04137,0 0.102646,-0.0381 0.136166,-0.0846 0.03352,-0.04651 0.09059,-0.08456 0.126832,-0.08456 0.03624,0 0.09331,-0.03805 0.126833,-0.08455 0.03352,-0.04651 0.09479,-0.08455 0.136165,-0.08455 0.04137,0 0.07522,-0.01903 0.07522,-0.04228 0,-0.02325 0.03385,-0.04228 0.07522,-0.04228 0.04137,0 0.102646,-0.03805 0.136165,-0.08455 0.03352,-0.0465 0.09059,-0.08456 0.126833,-0.08456 0.03624,0 0.09331,-0.03805 0.126832,-0.08455 0.03352,-0.0465 0.08716,-0.08455 0.119204,-0.08455 0.03204,0 0.111575,-0.05708 0.176738,-0.126832 0.06516,-0.06976 0.139691,-0.126833 0.165616,-0.126833 0.06096,0 0.679934,-0.618192 0.679934,-0.679072 0,-0.02545 0.0761,-0.11939 0.16911,-0.208755 0.09301,-0.08936 0.16911,-0.184876 0.16911,-0.212249 0,-0.02737 0.05707,-0.103085 0.126832,-0.168248 0.06976,-0.06516 0.126832,-0.148896 0.126832,-0.186072 0,-0.03718 0.01902,-0.06759 0.04228,-0.06759 0.02325,0 0.04228,-0.03385 0.04228,-0.07522 0,-0.04137 0.03805,-0.102646 0.08456,-0.136165 0.04651,-0.03352 0.08456,-0.09479 0.08456,-0.136166 0,-0.04137 0.01902,-0.07522 0.04228,-0.07522 0.02325,0 0.04228,-0.05707 0.04228,-0.126832 0,-0.06976 0.01902,-0.126833 0.04228,-0.126833 0.02325,0 0.04228,-0.03805 0.04228,-0.08455 0,-0.04651 0.01903,-0.08456 0.04228,-0.08456 0.02325,0 0.04228,-0.03805 0.04228,-0.08455 0,-0.04651 0.01902,-0.08456 0.04228,-0.08456 0.02325,0 0.04228,-0.03805 0.04228,-0.08455 0,-0.0465 0.01902,-0.08455 0.04228,-0.08455 0.02325,0 0.04228,-0.05707 0.04228,-0.126833 0,-0.06976 0.01902,-0.126832 0.04228,-0.126832 0.02325,0 0.04228,-0.05708 0.04228,-0.126832 0,-0.06976 0.01902,-0.126833 0.04228,-0.126833 0.02325,0 0.04228,-0.0761 0.04228,-0.16911 0,-0.09301 0.01902,-0.16911 0.04228,-0.16911 0.02325,0 0.04228,-0.09512 0.04228,-0.211387 0,-0.116263 0.01902,-0.211387 0.04228,-0.211387 0.02466,0 0.04228,-0.140925 0.04228,-0.33822 0,-0.197295 0.01761,-0.33822 0.04228,-0.33822 0.02642,0 0.04228,-0.253665 0.04228,-0.67644 0,-0.422774 -0.01585,-0.676439 -0.04228,-0.676439 -0.02466,0 -0.04228,-0.140925 -0.04228,-0.33822 0,-0.197295 -0.01762,-0.33822 -0.04228,-0.33822 -0.02325,0 -0.04228,-0.09512 -0.04228,-0.211387 0,-0.116263 -0.01902,-0.211387 -0.04228,-0.211387 -0.02325,0 -0.04228,-0.0761 -0.04228,-0.16911 0,-0.09301 -0.01902,-0.16911 -0.04228,-0.16911 -0.02325,0 -0.04228,-0.0761 -0.04228,-0.16911 0,-0.09301 -0.01903,-0.16911 -0.04228,-0.16911 -0.02325,0 -0.04228,-0.05707 -0.04228,-0.126832 0,-0.06976 -0.01902,-0.126833 -0.04228,-0.126833 -0.02325,0 -0.04228,-0.05707 -0.04228,-0.126832 0,-0.06976 -0.01902,-0.126833 -0.04228,-0.126833 -0.02325,0 -0.04228,-0.03805 -0.04228,-0.08455 0,-0.0465 -0.01902,-0.08456 -0.04228,-0.08456 -0.02325,0 -0.04228,-0.05707 -0.04228,-0.126832 0,-0.06976 -0.01902,-0.126832 -0.04228,-0.126832 -0.02325,0 -0.04228,-0.03805 -0.04228,-0.08455 0,-0.04651 -0.01902,-0.08455 -0.04228,-0.08455 -0.02325,0 -0.04228,-0.03805 -0.04228,-0.08456 0,-0.0465 -0.01902,-0.08455 -0.04228,-0.08455 -0.02325,0 -0.04228,-0.03805 -0.04228,-0.08455 0,-0.04651 -0.01902,-0.08456 -0.04228,-0.08456 -0.02325,0 -0.04228,-0.03385 -0.04228,-0.07522 0,-0.04137 -0.03805,-0.102646 -0.08455,-0.136165 -0.04651,-0.03352 -0.08455,-0.09479 -0.08455,-0.136166 0,-0.04137 -0.01902,-0.07522 -0.04228,-0.07522 -0.02325,0 -0.04228,-0.03385 -0.04228,-0.07522 0,-0.04137 -0.03805,-0.102646 -0.08456,-0.136165 -0.04651,-0.03352 -0.08456,-0.08716 -0.08456,-0.119204 0,-0.03204 -0.05707,-0.111575 -0.126833,-0.176739 -0.06976,-0.06516 -0.126832,-0.140437 -0.126832,-0.167274 0,-0.02684 -0.114149,-0.160838 -0.253665,-0.297778 -0.139516,-0.13694 -0.253665,-0.269694 -0.253665,-0.29501 0,-0.0601 -0.279388,-0.339152 -0.339555,-0.339152 -0.02554,0 -0.139086,-0.09512 -0.252329,-0.211387 -0.113244,-0.116263 -0.228038,-0.211388 -0.255097,-0.211388 -0.02706,0 -0.102515,-0.05707 -0.167678,-0.126832 -0.06516,-0.06976 -0.144696,-0.126832 -0.176739,-0.126832 -0.03204,0 -0.08568,-0.03805 -0.119203,-0.08455 -0.03352,-0.04651 -0.09479,-0.08455 -0.136166,-0.08455 -0.04137,0 -0.07522,-0.01902 -0.07522,-0.04228 0,-0.02325 -0.03385,-0.04228 -0.07522,-0.04228 -0.04137,0 -0.102646,-0.03805 -0.136165,-0.08455 -0.03352,-0.0465 -0.09479,-0.08455 -0.136166,-0.08455 -0.04137,0 -0.07522,-0.01903 -0.07522,-0.04228 0,-0.02325 -0.03805,-0.04228 -0.08456,-0.04228 -0.0465,0 -0.08455,-0.01902 -0.08455,-0.04228 0,-0.02325 -0.03805,-0.04228 -0.08456,-0.04228 -0.04651,0 -0.08456,-0.01902 -0.08456,-0.04228 0,-0.02325 -0.05707,-0.04228 -0.126833,-0.04228 -0.06976,0 -0.126832,-0.01902 -0.126832,-0.04228 0,-0.02325 -0.03805,-0.04228 -0.08456,-0.04228 -0.0465,0 -0.08455,-0.01902 -0.08455,-0.04228 0,-0.02325 -0.05708,-0.04228 -0.126833,-0.04228 -0.06976,0 -0.126832,-0.01902 -0.126832,-0.04228 0,-0.02325 -0.0761,-0.04228 -0.16911,-0.04228 -0.09301,0 -0.16911,-0.01902 -0.16911,-0.04228 0,-0.02325 -0.05707,-0.04228 -0.126832,-0.04228 -0.06976,0 -0.126833,-0.01902 -0.126833,-0.04228 0,-0.02325 -0.0761,-0.04228 -0.169109,-0.04228 -0.09301,0 -0.16911,-0.01902 -0.16911,-0.04228 0,-0.02416 -0.126833,-0.04228 -0.295943,-0.04228 -0.16911,0 -0.295942,-0.01812 -0.295942,-0.04228 0,-0.0269 -0.33822,-0.04228 -0.930104,-0.04228 -0.591885,0 -0.930105,0.01537 -0.930105,0.04228 0,0.02349 -0.11274,0.04228 -0.253665,0.04228 -0.140924,0 -0.253664,0.01879 -0.253664,0.04228 0,0.02325 -0.0761,0.04228 -0.16911,0.04228 -0.09301,0 -0.16911,0.01903 -0.16911,0.04228 0,0.02325 -0.0761,0.04228 -0.16911,0.04228 -0.09301,0 -0.16911,0.01902 -0.16911,0.04228 0,0.02325 -0.05707,0.04228 -0.126832,0.04228 -0.06976,0 -0.126833,0.01902 -0.126833,0.04228 0,0.02325 -0.05707,0.04228 -0.126832,0.04228 -0.06976,0 -0.126833,0.01902 -0.126833,0.04228 0,0.02325 -0.05707,0.04228 -0.126832,0.04228 -0.06976,0 -0.126833,0.01902 -0.126833,0.04228 0,0.02325 -0.03805,0.04228 -0.08456,0.04228 -0.04651,0 -0.08455,0.01902 -0.08455,0.04228 0,0.02325 -0.03805,0.04228 -0.08455,0.04228 -0.04651,0 -0.08456,0.01902 -0.08456,0.04228 0,0.02325 -0.05707,0.04228 -0.126833,0.04228 -0.06976,0 -0.126832,0.01902 -0.126832,0.04228 0,0.02325 -0.03805,0.04228 -0.08456,0.04228 -0.04651,0 -0.08456,0.01902 -0.08456,0.04228 0,0.02325 -0.03385,0.04228 -0.07522,0.04228 -0.04137,0 -0.102646,0.03805 -0.136165,0.08455 -0.03352,0.04651 -0.09479,0.08456 -0.136166,0.08456 -0.04137,0 -0.07522,0.01902 -0.07522,0.04228 0,0.02325 -0.03805,0.04228 -0.08455,0.04228 -0.04651,0 -0.08456,0.01902 -0.08456,0.04228 0,0.02325 -0.03042,0.04228 -0.06759,0.04228 -0.03717,0 -0.120908,0.05707 -0.186072,0.126832 -0.06516,0.06976 -0.144695,0.126832 -0.176738,0.126832 -0.03204,0 -0.08569,0.03805 -0.119204,0.08456 -0.03352,0.04651 -0.08543,0.08455 -0.115362,0.08455 -0.06572,0 -1.364349,1.290551 -1.364349,1.355858 0,0.02526 -0.0761,0.119044 -0.16911,0.208409 -0.09301,0.08936 -0.16911,0.192509 -0.16911,0.229211 0,0.0367 -0.01902,0.06673 -0.04228,0.06673 -0.02325,0 -0.04228,0.03385 -0.04228,0.07522 0,0.04137 -0.03805,0.102646 -0.08455,0.136166 -0.04651,0.03352 -0.08456,0.09059 -0.08456,0.126832 0,0.03624 -0.03805,0.09331 -0.08456,0.126832 -0.0465,0.03352 -0.08456,0.09479 -0.08456,0.136166 0,0.04137 -0.01902,0.07522 -0.04228,0.07522 -0.02325,0 -0.04228,0.03805 -0.04228,0.08456 0,0.0465 -0.01902,0.08455 -0.04228,0.08455 -0.02325,0 -0.04228,0.03805 -0.04228,0.08455 0,0.04651 -0.01902,0.08456 -0.04228,0.08456 -0.02325,0 -0.04228,0.05287 -0.04228,0.117499 0,0.069 -0.0349,0.142655 -0.08456,0.178443 -0.04965,0.03579 -0.08455,0.109443 -0.08455,0.178443 0,0.06462 -0.01902,0.117499 -0.04228,0.117499 -0.02325,0 -0.04228,0.05707 -0.04228,0.126833 0,0.06976 -0.01902,0.126832 -0.04228,0.126832 -0.02325,0 -0.04228,0.05708 -0.04228,0.126832 0,0.06976 -0.01902,0.126833 -0.04228,0.126833 -0.02325,0 -0.04228,0.0761 -0.04228,0.16911 0,0.09301 -0.01902,0.16911 -0.04228,0.16911 -0.02325,0 -0.04228,0.0761 -0.04228,0.16911 0,0.09301 -0.01902,0.169109 -0.04228,0.169109 -0.02349,0 -0.04228,0.11274 -0.04228,0.253665 0,0.140925 -0.01879,0.253665 -0.04228,0.253665 -0.02416,0 -0.04228,0.126833 -0.04228,0.295942 0,0.16911 -0.01812,0.295943 -0.04228,0.295943 -0.02325,0 -0.04228,0.03805 -0.04228,0.08456 0,0.0465 -0.01902,0.08455 -0.04228,0.08455 -0.02416,0 -0.04228,0.126832 -0.04228,0.295942 0,0.267757 -0.0081,0.295942 -0.08456,0.295942 -0.07046,0 -0.08456,-0.02819 -0.08456,-0.16911 0,-0.09301 -0.01902,-0.16911 -0.04228,-0.16911 -0.02537,0 -0.04228,0.16911 -0.04228,0.422775 0,0.253665 0.01691,0.422775 0.04228,0.422775 0.02466,0 0.04228,0.140925 0.04228,0.33822 0,0.197295 0.01762,0.338219 0.04228,0.338219 0.02325,0 0.04228,0.09512 0.04228,0.211388 0,0.116263 0.01902,0.211387 0.04228,0.211387 0.02325,0 0.04228,0.0761 0.04228,0.16911 0,0.09301 0.01902,0.16911 0.04228,0.16911 0.02325,0 0.04228,0.0761 0.04228,0.16911 0,0.09301 0.01902,0.16911 0.04228,0.16911 0.02325,0 0.04228,0.03805 0.04228,0.08455 0,0.0465 0.01903,0.08455 0.04228,0.08455 0.02325,0 0.04228,0.05707 0.04228,0.126832 0,0.06976 0.01902,0.126833 0.04228,0.126833 0.02325,0 0.04228,0.05707 0.04228,0.126832 0,0.06976 0.01902,0.126832 0.04228,0.126832 0.02325,0 0.04228,0.03805 0.04228,0.08455 0,0.04651 0.01902,0.08455 0.04228,0.08455 0.02325,0 0.04228,0.03805 0.04228,0.08456 0,0.0465 0.01902,0.08455 0.04228,0.08455 0.02325,0 0.04228,0.05707 0.04228,0.126833 0,0.06976 0.01902,0.126832 0.04228,0.126832 0.02325,0 0.04228,0.05707 0.04228,0.126832 0,0.06976 0.01902,0.126833 0.04228,0.126833 0.02325,0 0.04228,0.03805 0.04228,0.08456 0,0.0465 0.01903,0.08455 0.04228,0.08455 0.02325,0 0.04228,0.05707 0.04228,0.126832 0,0.153726 -0.01666,0.15629 -0.149892,0.02306 -0.112633,-0.112631 -0.134528,-0.217149 -0.0513,-0.244891 0.03723,-0.01241 0.02998,-0.03998 -0.02498,-0.09493 -0.06172,-0.06173 -0.08447,-0.06608 -0.112049,-0.02145 -0.02803,0.04536 -0.04738,0.04322 -0.101857,-0.01126 -0.03699,-0.03699 -0.06725,-0.09715 -0.06725,-0.133689 0,-0.03654 -0.01902,-0.06644 -0.04228,-0.06644 -0.02325,0 -0.04228,-0.03805 -0.04228,-0.08455 0,-0.0465 -0.01902,-0.08456 -0.04228,-0.08456 -0.02325,0 -0.04228,-0.03385 -0.04228,-0.07522 0,-0.04137 -0.03805,-0.102646 -0.08455,-0.136165 -0.04651,-0.03352 -0.08456,-0.09479 -0.08456,-0.136166 0,-0.04137 -0.01902,-0.07522 -0.04228,-0.07522 -0.02325,0 -0.04228,-0.03805 -0.04228,-0.08456 0,-0.0465 -0.01902,-0.08455 -0.04228,-0.08455 -0.02325,0 -0.04228,-0.03805 -0.04228,-0.08455 0,-0.04651 -0.01902,-0.08456 -0.04228,-0.08456 -0.02325,0 -0.04228,-0.03805 -0.04228,-0.08455 0,-0.04651 -0.01902,-0.08456 -0.04228,-0.08456 -0.02325,0 -0.04228,-0.05707 -0.04228,-0.126833 0,-0.06976 -0.01902,-0.126832 -0.04228,-0.126832 -0.02325,0 -0.04228,-0.03805 -0.04228,-0.08455 0,-0.0465 -0.01902,-0.08455 -0.04228,-0.08455 -0.02325,0 -0.04228,-0.05708 -0.04228,-0.126832 0,-0.06976 -0.01902,-0.126833 -0.04228,-0.126833 -0.02325,0 -0.04228,-0.05707 -0.04228,-0.126832 0,-0.06976 -0.01902,-0.126833 -0.04228,-0.126833 -0.02325,0 -0.04228,-0.0761 -0.04228,-0.16911 0,-0.09301 -0.01902,-0.16911 -0.04228,-0.16911 -0.02684,0 -0.04228,-0.324127 -0.04228,-0.887826 0,-0.5637 -0.01543,-0.887827 -0.04228,-0.887827 -0.02562,0 -0.04228,-0.183203 -0.04228,-0.465053 0,-0.28185 0.01666,-0.465052 0.04228,-0.465052 0.02325,0 0.04228,-0.03805 0.04228,-0.08455 0,-0.04651 0.01902,-0.08456 0.04228,-0.08456 0.02505,0 0.04228,-0.155017 0.04228,-0.380497 0,-0.22548 -0.01722,-0.380497 -0.04228,-0.380497 -0.02325,0 -0.04228,-0.0761 -0.04228,-0.16911 0,-0.09301 0.01902,-0.16911 0.04228,-0.16911 0.02325,0 0.04228,-0.0761 0.04228,-0.16911 0,-0.09301 0.01902,-0.16911 0.04228,-0.16911 0.02325,0 0.04228,-0.05707 0.04228,-0.126832 0,-0.06976 0.01902,-0.126833 0.04228,-0.126833 0.02325,0 0.04228,-0.0761 0.04228,-0.16911 0,-0.09301 0.01902,-0.169109 0.04228,-0.169109 0.02325,0 0.04228,-0.03805 0.04228,-0.08455 0,-0.04651 0.01902,-0.08455 0.04228,-0.08455 0.02325,0 0.04228,-0.05707 0.04228,-0.126833 0,-0.06976 0.01902,-0.126832 0.04228,-0.126832 0.02325,0 0.04228,-0.03805 0.04228,-0.08456 0,-0.0465 0.01902,-0.08455 0.04228,-0.08455 0.02325,0 0.04228,-0.03805 0.04228,-0.08456 0,-0.0465 0.01903,-0.08455 0.04228,-0.08455 0.02325,0 0.04228,-0.03385 0.04228,-0.07522 0,-0.04137 0.03805,-0.102646 0.08456,-0.136165 0.0465,-0.03352 0.08456,-0.09479 0.08456,-0.136166 0,-0.04137 0.01902,-0.07522 0.04228,-0.07522 0.02325,0 0.04228,-0.03385 0.04228,-0.07522 0,-0.04137 0.03805,-0.102647 0.08456,-0.136166 0.04651,-0.03352 0.08456,-0.08716 0.08456,-0.119203 0,-0.03204 0.05707,-0.111576 0.126832,-0.176739 0.06976,-0.06516 0.126832,-0.140619 0.126832,-0.167678 0,-0.02706 0.09512,-0.141853 0.211388,-0.255097 0.116263,-0.113244 0.211387,-0.227393 0.211387,-0.253665 0,-0.02627 0.09512,-0.140421 0.211387,-0.253665 0.116264,-0.113243 0.211388,-0.226309 0.211388,-0.251255 0,-0.06014 1.296513,-1.355289 1.35672,-1.355289 0.02573,0 0.100105,-0.05707 0.165269,-0.126832 0.06516,-0.06976 0.144696,-0.126833 0.176739,-0.126833 0.03204,0 0.08568,-0.03805 0.119203,-0.08456 0.03352,-0.0465 0.09479,-0.08455 0.136166,-0.08455 0.04137,0 0.07522,-0.01902 0.07522,-0.04228 0,-0.02325 0.03385,-0.04228 0.07522,-0.04228 0.04137,0 0.102647,-0.03805 0.136166,-0.08456 0.03352,-0.04651 0.09479,-0.08455 0.136166,-0.08455 0.04137,0 0.07522,-0.01902 0.07522,-0.04228 0,-0.02325 0.03805,-0.04228 0.08456,-0.04228 0.0465,0 0.08455,-0.01902 0.08455,-0.04228 0,-0.02325 0.03805,-0.04228 0.08456,-0.04228 0.04651,0 0.08456,-0.01902 0.08456,-0.04228 0,-0.02325 0.05707,-0.04228 0.126832,-0.04228 0.06976,0 0.126833,-0.01902 0.126833,-0.04228 0,-0.02325 0.05707,-0.04228 0.126832,-0.04228 0.06976,0 0.126833,-0.01902 0.126833,-0.04228 0,-0.02325 0.03805,-0.04228 0.08456,-0.04228 0.04651,0 0.08456,-0.01902 0.08456,-0.04228 0,-0.02325 0.05707,-0.04228 0.126832,-0.04228 0.06976,0 0.126832,-0.01902 0.126832,-0.04228 0,-0.02325 0.0761,-0.04228 0.16911,-0.04228 0.09301,0 0.16911,-0.01902 0.16911,-0.04228 0,-0.02325 0.05707,-0.04228 0.126833,-0.04228 0.06976,0 0.126832,-0.01902 0.126832,-0.04228 0,-0.02325 0.0761,-0.04228 0.16911,-0.04228 0.09301,0 0.16911,-0.01902 0.16911,-0.04228 0,-0.02349 0.11274,-0.04228 0.253665,-0.04228 0.140925,0 0.253665,-0.01879 0.253665,-0.04228 0,-0.02416 0.126832,-0.04228 0.295942,-0.04228 0.16911,0 0.295942,-0.01812 0.295942,-0.04228 0,-0.02696 0.352312,-0.04228 0.972382,-0.04228 0.62007,0 0.972382,0.01532 0.972382,0.04228 z m -7.639137,4.250899 c -0.03599,0.03599 -0.05456,0.0763 -0.04127,0.08959 0.02435,0.02435 0.155018,-0.08595 0.155018,-0.130859 0,-0.04277 -0.04662,-0.02586 -0.113747,0.04127 z m -1.577352,1.033785 c 0,0.0465 -0.01902,0.08455 -0.04228,0.08455 -0.02325,0 -0.04228,0.03805 -0.04228,0.08456 0,0.0465 -0.01902,0.08455 -0.04228,0.08455 -0.02325,0 -0.04228,0.05707 -0.04228,0.126832 0,0.06976 -0.01902,0.126833 -0.04228,0.126833 -0.02325,0 -0.04228,0.05707 -0.04228,0.126832 0,0.06976 -0.01902,0.126832 -0.04228,0.126832 -0.02325,0 -0.04228,0.05707 -0.04228,0.126833 0,0.06976 -0.01902,0.126832 -0.04228,0.126832 -0.02325,0 -0.04228,0.03805 -0.04228,0.08456 0,0.0465 0.01902,0.08455 0.04228,0.08455 0.02325,0 0.04228,-0.03385 0.04228,-0.07522 0,-0.04137 0.03805,-0.102646 0.08456,-0.136165 0.0465,-0.03352 0.08456,-0.09479 0.08456,-0.136166 0,-0.04137 0.01902,-0.07522 0.04228,-0.07522 0.02325,0 0.04228,-0.0761 0.04228,-0.169109 0,-0.09301 0.01903,-0.16911 0.04228,-0.16911 0.02325,0 0.04228,-0.05707 0.04228,-0.126833 0,-0.06976 0.01902,-0.126832 0.04228,-0.126832 0.02325,0 0.04228,-0.05708 0.04228,-0.126833 0,-0.06976 -0.01902,-0.126832 -0.04228,-0.126832 -0.02325,0 -0.04228,0.03805 -0.04228,0.08456 z m 0.33822,1.352879 c 0,0.0465 -0.01902,0.08455 -0.04228,0.08455 -0.02325,0 -0.04228,0.05707 -0.04228,0.126832 0,0.06976 -0.01902,0.126833 -0.04228,0.126833 -0.02325,0 -0.04228,0.05707 -0.04228,0.126832 0,0.06976 0.01902,0.126833 0.04228,0.126833 0.02325,0 0.04228,-0.05707 0.04228,-0.126833 0,-0.06976 0.01903,-0.126832 0.04228,-0.126832 0.02325,0 0.04228,-0.05707 0.04228,-0.126833 0,-0.06976 0.01902,-0.126832 0.04228,-0.126832 0.02325,0 0.04228,-0.03805 0.04228,-0.08455 0,-0.04651 -0.01902,-0.08456 -0.04228,-0.08456 -0.02325,0 -0.04228,0.03805 -0.04228,0.08456 z m -0.84555,-0.04228 c 0,0.02325 0.01902,0.04228 0.04228,0.04228 0.02325,0 0.04228,-0.01902 0.04228,-0.04228 0,-0.02325 -0.01902,-0.04228 -0.04228,-0.04228 -0.02325,0 -0.04228,0.01902 -0.04228,0.04228 z m -0.08456,0.338219 c 0,0.02325 0.01902,0.04228 0.04228,0.04228 0.02325,0 0.04228,-0.01902 0.04228,-0.04228 0,-0.02325 -0.01902,-0.04228 -0.04228,-0.04228 -0.02325,0 -0.04228,0.01902 -0.04228,0.04228 z m 0.67644,0.549608 c 0,0.04651 0.01902,0.08456 0.04228,0.08456 0.02325,0 0.04228,-0.03805 0.04228,-0.08456 0,-0.04651 -0.01902,-0.08455 -0.04228,-0.08455 -0.02325,0 -0.04228,0.03805 -0.04228,0.08455 z m -0.08456,0.422774 c 0,0.04651 0.01902,0.08456 0.04228,0.08456 0.02325,0 0.04228,-0.03805 0.04228,-0.08456 0,-0.0465 -0.01902,-0.08455 -0.04228,-0.08455 -0.02325,0 -0.04228,0.03805 -0.04228,0.08455 z m -0.08456,0.67644 c 0,0.09301 0.01903,0.16911 0.04228,0.16911 0.02325,0 0.04228,-0.0761 0.04228,-0.16911 0,-0.09301 -0.01902,-0.16911 -0.04228,-0.16911 -0.02325,0 -0.04228,0.0761 -0.04228,0.16911 z m 0.16911,3.593585 c 0,0.02325 0.01902,0.04228 0.04228,0.04228 0.02325,0 0.04228,-0.01902 0.04228,-0.04228 0,-0.02325 -0.01902,-0.04228 -0.04228,-0.04228 -0.02325,0 -0.04228,0.01902 -0.04228,0.04228 z m 0.253665,0.591885 c 0,0.02325 0.01902,0.04228 0.04228,0.04228 0.02325,0 0.04228,-0.01902 0.04228,-0.04228 0,-0.02325 -0.01902,-0.04228 -0.04228,-0.04228 -0.02325,0 -0.04228,0.01902 -0.04228,0.04228 z m 0.08456,0.211387 c 0,0.04651 0.01902,0.08456 0.04228,0.08456 0.02325,0 0.04228,-0.03805 0.04228,-0.08456 0,-0.0465 -0.01902,-0.08455 -0.04228,-0.08455 -0.02325,0 -0.04228,0.03805 -0.04228,0.08455 z m 0.08455,0.211387 c 0,0.02325 0.01902,0.04228 0.04228,0.04228 0.02325,0 0.04228,-0.01902 0.04228,-0.04228 0,-0.02325 -0.01902,-0.04228 -0.04228,-0.04228 -0.02325,0 -0.04228,0.01902 -0.04228,0.04228 z m -0.422774,-3.297642 c 0,0.116263 -0.01902,0.211387 -0.04228,0.211387 -0.02325,0 -0.04228,-0.09512 -0.04228,-0.211387 0,-0.116264 0.01902,-0.211388 0.04228,-0.211388 0.02325,0 0.04228,0.09512 0.04228,0.211388 z m 0.16911,1.141491 c 0,0.09301 0.01903,0.16911 0.04228,0.16911 0.02325,0 0.04228,0.0761 0.04228,0.16911 0,0.09301 0.01902,0.16911 0.04228,0.16911 0.02325,0 0.04228,0.0761 0.04228,0.16911 0,0.09301 0.01902,0.16911 0.04228,0.16911 0.02325,0 0.04228,0.05707 0.04228,0.126832 0,0.06976 -0.01902,0.126833 -0.04228,0.126833 -0.02325,0 -0.04228,-0.05707 -0.04228,-0.126833 0,-0.06976 -0.01902,-0.126832 -0.04228,-0.126832 -0.02325,0 -0.04228,-0.05707 -0.04228,-0.126833 0,-0.06976 -0.01902,-0.126832 -0.04228,-0.126832 -0.02325,0 -0.04228,-0.0761 -0.04228,-0.16911 0,-0.09301 -0.01902,-0.16911 -0.04228,-0.16911 -0.02325,0 -0.04228,-0.09512 -0.04228,-0.211387 0,-0.116263 0.01902,-0.211388 0.04228,-0.211388 0.02325,0 0.04228,0.0761 0.04228,0.16911 z m -0.306512,1.585229 c 0.02907,0.03301 0.05285,0.08936 0.05285,0.125224 0,0.03586 0.01902,0.0652 0.04228,0.0652 0.02325,0 0.04228,0.03385 0.04228,0.07522 0,0.04137 0.03805,0.102646 0.08456,0.136166 0.0465,0.03352 0.08455,0.08716 0.08455,0.119203 0,0.03204 0.05707,0.111575 0.126832,0.176739 0.06976,0.06516 0.126832,0.148896 0.126832,0.186072 0,0.03718 0.01902,0.06759 0.04228,0.06759 0.02325,0 0.04228,0.0761 0.04228,0.16911 0,0.09301 0.01902,0.16911 0.04228,0.16911 0.02325,0 0.04228,0.03385 0.04228,0.07522 0,0.04137 0.03805,0.102647 0.08456,0.136166 0.04651,0.03352 0.08455,0.08594 0.08455,0.1165 0,0.03056 0.190249,0.244479 0.422775,0.475385 0.232526,0.230905 0.422775,0.440875 0.422775,0.466599 0,0.04868 -0.102841,0.167563 -0.144952,0.167563 -0.01329,0 -0.02416,-0.02935 -0.02416,-0.06522 0,-0.03587 -0.152199,-0.215796 -0.33822,-0.399828 -0.186021,-0.184031 -0.33822,-0.35632 -0.33822,-0.382865 0,-0.02654 -0.05707,-0.101578 -0.126832,-0.166742 -0.06976,-0.06516 -0.126833,-0.144696 -0.126833,-0.176739 0,-0.03204 -0.03805,-0.08568 -0.08456,-0.119203 -0.0465,-0.03352 -0.08455,-0.09479 -0.08455,-0.136166 0,-0.04137 -0.01902,-0.07522 -0.04228,-0.07522 -0.02325,0 -0.04228,-0.03385 -0.04228,-0.07522 0,-0.04137 -0.03805,-0.102647 -0.08456,-0.136166 -0.04651,-0.03352 -0.08455,-0.09479 -0.08455,-0.136165 0,-0.04137 -0.01902,-0.07522 -0.04228,-0.07522 -0.02325,0 -0.04228,-0.03805 -0.04228,-0.08455 0,-0.0465 -0.01902,-0.08455 -0.04228,-0.08455 -0.02325,0 -0.04228,-0.03805 -0.04228,-0.08456 0,-0.0465 -0.01902,-0.08455 -0.04228,-0.08455 -0.02325,0 -0.04228,-0.03805 -0.04228,-0.08456 0,-0.0465 -0.01902,-0.08455 -0.04228,-0.08455 -0.02325,0 -0.04228,-0.03805 -0.04228,-0.08455 0,-0.04651 -0.01902,-0.08456 -0.04228,-0.08456 -0.02325,0 -0.04228,-0.03805 -0.04228,-0.08455 0,-0.09918 0.120956,-0.112022 0.200818,-0.02132 z m 1.014659,0.50733 c 0.02907,0.03301 0.05285,0.08516 0.05285,0.115891 0,0.03073 0.03805,0.08329 0.08456,0.116811 0.0465,0.03352 0.08455,0.09059 0.08455,0.126833 0,0.03624 0.03805,0.09331 0.08456,0.126832 0.04651,0.03352 0.08456,0.09059 0.08456,0.126833 0,0.03624 0.03805,0.09331 0.08456,0.126832 0.0465,0.03352 0.08455,0.08716 0.08455,0.119203 0,0.03204 0.05707,0.111576 0.126832,0.176739 0.06976,0.06516 0.126833,0.139535 0.126833,0.165269 0,0.06111 1.29561,1.356726 1.35672,1.356726 0.02573,0 0.100105,0.0571 0.165269,0.12683 0.06516,0.0698 0.144696,0.12683 0.176739,0.12683 0.03204,0 0.08568,0.038 0.119203,0.0846 0.03352,0.0465 0.09059,0.0846 0.126832,0.0846 0.03624,0 0.09331,0.038 0.126833,0.0846 0.03352,0.0465 0.09059,0.0846 0.126832,0.0846 0.03624,0 0.09331,0.038 0.126833,0.0846 0.03352,0.0465 0.08664,0.0845 0.118046,0.0845 0.07655,0 0.19623,0.12318 0.156002,0.16056 -0.01758,0.0163 -0.04045,0.006 -0.05083,-0.0232 -0.01038,-0.0291 -0.05534,-0.0528 -0.09991,-0.0528 -0.04457,0 -0.08103,-0.019 -0.08103,-0.0423 0,-0.0233 -0.03385,-0.0423 -0.07522,-0.0423 -0.04137,0 -0.102646,-0.038 -0.136165,-0.0845 -0.03352,-0.0465 -0.09479,-0.0846 -0.136166,-0.0846 -0.04137,0 -0.07522,-0.019 -0.07522,-0.0423 0,-0.0233 -0.03385,-0.0423 -0.07522,-0.0423 -0.04137,0 -0.102647,-0.038 -0.136166,-0.0846 -0.03352,-0.0465 -0.09059,-0.0846 -0.126832,-0.0846 -0.03624,0 -0.09331,-0.038 -0.126833,-0.0846 -0.03352,-0.0465 -0.0861,-0.0845 -0.116835,-0.0845 -0.03074,0 -0.206463,-0.1522 -0.390494,-0.33822 -0.184032,-0.186026 -0.355307,-0.338225 -0.380611,-0.338225 -0.06051,0 -0.253552,-0.194188 -0.253552,-0.255058 0,-0.02613 -0.0761,-0.12063 -0.169109,-0.209994 -0.09301,-0.08937 -0.16911,-0.184877 -0.16911,-0.21225 0,-0.02737 -0.05708,-0.103084 -0.126833,-0.168248 -0.06976,-0.06516 -0.126832,-0.144696 -0.126832,-0.176739 0,-0.03204 -0.03805,-0.08568 -0.08455,-0.119203 -0.04651,-0.03352 -0.08456,-0.09479 -0.08456,-0.136166 0,-0.04137 -0.01902,-0.07522 -0.04228,-0.07522 -0.02325,0 -0.04228,-0.03385 -0.04228,-0.07522 0,-0.04137 -0.03805,-0.102647 -0.08456,-0.136166 -0.0465,-0.03352 -0.08455,-0.09059 -0.08455,-0.126832 0,-0.03624 -0.03805,-0.09331 -0.08456,-0.126833 -0.04651,-0.03352 -0.08456,-0.09479 -0.08456,-0.136165 0,-0.04137 -0.01902,-0.07522 -0.04228,-0.07522 -0.02325,0 -0.04228,-0.01902 -0.04228,-0.04228 0,-0.05952 0.05398,-0.04978 0.116263,0.02096 z m -0.285373,0.317257 c 0,0.02325 -0.01902,0.04228 -0.04228,0.04228 -0.02325,0 -0.04228,-0.01902 -0.04228,-0.04228 0,-0.02325 0.01902,-0.04228 0.04228,-0.04228 0.02325,0 0.04228,0.01902 0.04228,0.04228 z m 1.395157,2.156152 c 0.03352,0.0465 0.09479,0.0846 0.136166,0.0846 0.04137,0 0.07522,0.019 0.07522,0.0423 0,0.0233 0.03385,0.0423 0.07522,0.0423 0.04137,0 0.102646,0.038 0.136166,0.0846 0.03352,0.0465 0.09059,0.0845 0.126832,0.0845 0.03624,0 0.09331,0.038 0.126833,0.0846 0.03352,0.0465 0.08578,0.0846 0.116139,0.0846 0.07476,0 0.449626,0.37902 0.410621,0.41517 -0.01705,0.0158 -0.0395,0.005 -0.04988,-0.0241 -0.01038,-0.0291 -0.05534,-0.0529 -0.0999,-0.0529 -0.04457,0 -0.08103,-0.019 -0.08103,-0.0423 0,-0.0233 -0.03042,-0.0423 -0.06759,-0.0423 -0.03718,0 -0.120908,-0.0571 -0.186072,-0.12684 -0.06516,-0.0697 -0.144696,-0.12683 -0.176739,-0.12683 -0.03204,0 -0.08568,-0.038 -0.119203,-0.0846 -0.03352,-0.0465 -0.08716,-0.0846 -0.119204,-0.0846 -0.03204,0 -0.111575,-0.0571 -0.176739,-0.12683 -0.06516,-0.0698 -0.148896,-0.12683 -0.186072,-0.12683 -0.03941,0 -0.06759,-0.0353 -0.06759,-0.0846 0,-0.0465 0.01483,-0.0846 0.03294,-0.0846 0.01812,0 0.06037,0.038 0.09389,0.0846 z"
         id="path186" />
      <path
         style="fill:#ffffff;fill-opacity:1;stroke:#000000;stroke-width:0.0422775;stroke-opacity:1"
         d="m 42.725346,84.524995 c 0,0.02505 0.155018,0.04228 0.380497,0.04228 0.22548,0 0.380498,0.01722 0.380498,0.04228 0,0.02349 0.11274,0.04228 0.253665,0.04228 0.140924,0 0.253664,0.01879 0.253664,0.04228 0,0.02325 0.09512,0.04228 0.211388,0.04228 0.116263,0 0.211387,0.01902 0.211387,0.04228 0,0.02325 0.05707,0.04228 0.126833,0.04228 0.06976,0 0.126832,0.01902 0.126832,0.04228 0,0.02325 0.0761,0.04228 0.16911,0.04228 0.09301,0 0.16911,0.01902 0.16911,0.04228 0,0.02325 0.05707,0.04228 0.126832,0.04228 0.06976,0 0.126833,0.01902 0.126833,0.04228 0,0.02325 0.05707,0.04228 0.126832,0.04228 0.06976,0 0.126832,0.01902 0.126832,0.04228 0,0.02325 0.03805,0.04228 0.08456,0.04228 0.04651,0 0.08456,0.01903 0.08456,0.04228 0,0.02325 0.03805,0.04228 0.08455,0.04228 0.04651,0 0.08456,0.01902 0.08456,0.04228 0,0.02325 0.05707,0.04228 0.126833,0.04228 0.06976,0 0.126832,0.01902 0.126832,0.04228 0,0.02325 0.03805,0.04228 0.08456,0.04228 0.04651,0 0.08456,0.01902 0.08456,0.04228 0,0.02325 0.03385,0.04228 0.07522,0.04228 0.04137,0 0.102646,0.03805 0.136165,0.08455 0.03352,0.04651 0.09479,0.08456 0.136166,0.08456 0.04137,0 0.07522,0.01902 0.07522,0.04228 0,0.02325 0.03805,0.04228 0.08455,0.04228 0.04651,0 0.08456,0.01902 0.08456,0.04228 0,0.02325 0.03385,0.04228 0.07522,0.04228 0.04137,0 0.102647,0.03805 0.136166,0.08456 0.03352,0.04651 0.09059,0.08455 0.126832,0.08455 0.03624,0 0.09331,0.03805 0.126833,0.08455 0.03352,0.04651 0.08677,0.08456 0.118341,0.08456 0.03157,0 0.130514,0.0761 0.219879,0.16911 0.08936,0.09301 0.183515,0.16911 0.209224,0.16911 0.02571,0 0.294872,0.249172 0.598138,0.553715 0.303267,0.304543 0.56434,0.53975 0.580163,0.52268 0.01582,-0.01707 0.005,-0.03953 -0.02408,-0.04991 -0.02907,-0.01038 -0.05285,-0.05375 -0.05285,-0.09638 0,-0.04263 -0.02378,-0.086 -0.05285,-0.09638 -0.02906,-0.01038 -0.03985,-0.03289 -0.02396,-0.05003 0.03387,-0.03653 0.330469,0.248359 0.330469,0.317427 0,0.02585 0.0761,0.120117 0.16911,0.209482 0.09301,0.08936 0.16911,0.184876 0.16911,0.212249 0,0.02737 0.05707,0.103084 0.126832,0.168248 0.06976,0.06516 0.126833,0.148896 0.126833,0.186072 0,0.03718 0.01902,0.06759 0.04228,0.06759 0.02325,0 0.04228,0.03385 0.04228,0.07522 0,0.04137 0.03805,0.102646 0.08456,0.136165 0.0465,0.03352 0.08455,0.09479 0.08455,0.136166 0,0.04137 0.01902,0.07522 0.04228,0.07522 0.02325,0 0.04228,0.03805 0.04228,0.08455 0,0.04651 0.01902,0.08455 0.04228,0.08455 0.02325,0 0.04228,0.03385 0.04228,0.07522 0,0.04137 0.03805,0.102647 0.08455,0.136166 0.04651,0.03352 0.08456,0.09479 0.08456,0.136165 0,0.04137 0.01902,0.07522 0.04228,0.07522 0.02325,0 0.04228,0.03805 0.04228,0.08456 0,0.0465 0.01902,0.08455 0.04228,0.08455 0.02325,0 0.04228,0.03805 0.04228,0.08455 0,0.04651 0.01902,0.08456 0.04228,0.08456 0.02325,0 0.04228,0.05707 0.04228,0.126832 0,0.06976 0.01902,0.126833 0.04228,0.126833 0.02325,0 0.04228,0.03805 0.04228,0.08455 0,0.04651 0.01902,0.08456 0.04228,0.08456 0.02325,0 0.04228,0.03805 0.04228,0.08455 0,0.0465 0.01902,0.08455 0.04228,0.08455 0.02325,0 0.04228,0.05707 0.04228,0.126832 0,0.06976 0.01902,0.126832 0.04228,0.126832 0.02325,0 0.04228,0.03805 0.04228,0.08456 0,0.04651 0.01902,0.08455 0.04228,0.08455 0.02325,0 0.04228,0.0761 0.04228,0.16911 0,0.09301 0.01902,0.16911 0.04228,0.16911 0.02325,0 0.04228,0.0761 0.04228,0.16911 0,0.09301 0.01902,0.16911 0.04228,0.16911 0.02325,0 0.04228,0.09512 0.04228,0.211387 0,0.116263 0.01902,0.211388 0.04228,0.211388 0.02349,0 0.04228,0.11274 0.04228,0.253664 0,0.140925 0.01879,0.253665 0.04228,0.253665 0.02505,0 0.04228,0.155018 0.04228,0.380498 0,0.225479 0.01722,0.380497 0.04228,0.380497 0.0269,0 0.04228,0.33822 0.04228,0.930104 0,0.591885 -0.01537,0.930105 -0.04228,0.930105 -0.02466,0 -0.04228,0.140924 -0.04228,0.338219 0,0.197295 -0.01762,0.33822 -0.04228,0.33822 -0.02325,0 -0.04228,0.09512 -0.04228,0.211388 0,0.116263 -0.01902,0.211387 -0.04228,0.211387 -0.02325,0 -0.04228,0.0761 -0.04228,0.16911 0,0.09301 -0.01902,0.16911 -0.04228,0.16911 -0.02325,0 -0.04228,0.0761 -0.04228,0.16911 0,0.09301 -0.01902,0.16911 -0.04228,0.16911 -0.02325,0 -0.04228,0.05707 -0.04228,0.126832 0,0.06976 -0.01902,0.126832 -0.04228,0.126832 -0.02325,0 -0.04228,0.03805 -0.04228,0.08455 0,0.04651 -0.01902,0.08455 -0.04228,0.08455 -0.02325,0 -0.04228,0.05707 -0.04228,0.126833 0,0.06976 -0.01903,0.126832 -0.04228,0.126832 -0.02325,0 -0.04228,0.03805 -0.04228,0.08456 0,0.0465 -0.01902,0.08455 -0.04228,0.08455 -0.02325,0 -0.04228,0.05707 -0.04228,0.126832 0,0.06976 -0.01902,0.126833 -0.04228,0.126833 -0.02325,0 -0.04228,0.03805 -0.04228,0.08456 0,0.0465 -0.01902,0.08455 -0.04228,0.08455 -0.02325,0 -0.04228,0.03385 -0.04228,0.07522 0,0.04137 -0.03805,0.102646 -0.08456,0.136165 -0.04651,0.03352 -0.08456,0.09479 -0.08456,0.136166 0,0.04137 -0.01902,0.07522 -0.04228,0.07522 -0.02325,0 -0.04228,0.03385 -0.04228,0.07522 0,0.04137 -0.03805,0.102647 -0.08455,0.136166 -0.04651,0.03352 -0.08456,0.09059 -0.08456,0.126832 0,0.03624 -0.03805,0.09331 -0.08455,0.126833 -0.04651,0.03352 -0.08455,0.09059 -0.08455,0.126832 0,0.03624 -0.03805,0.09331 -0.08456,0.126833 -0.04651,0.03352 -0.08456,0.08677 -0.08456,0.118341 0,0.03157 -0.0761,0.130514 -0.16911,0.219878 -0.09301,0.08937 -0.16911,0.183219 -0.16911,0.208565 0,0.06015 -0.872774,0.932934 -0.932928,0.932934 -0.02535,0 -0.1192,0.0761 -0.208564,0.16911 -0.08936,0.093 -0.184876,0.16911 -0.212249,0.16911 -0.02737,0 -0.103085,0.0571 -0.168248,0.12683 -0.06516,0.0698 -0.144696,0.12683 -0.176739,0.12683 -0.03204,0 -0.08568,0.038 -0.119203,0.0846 -0.03352,0.0465 -0.09059,0.0846 -0.126833,0.0846 -0.03624,0 -0.09331,0.038 -0.126832,0.0846 -0.03352,0.0465 -0.09479,0.0845 -0.136166,0.0845 -0.04137,0 -0.07522,0.019 -0.07522,0.0423 0,0.0233 -0.03385,0.0423 -0.07522,0.0423 -0.04137,0 -0.102647,0.038 -0.136166,0.0845 -0.03352,0.0465 -0.09479,0.0846 -0.136166,0.0846 -0.04137,0 -0.07522,0.019 -0.07522,0.0423 0,0.0233 -0.03805,0.0423 -0.08455,0.0423 -0.04651,0 -0.08456,0.019 -0.08456,0.0423 0,0.0233 -0.03805,0.0423 -0.08456,0.0423 -0.0465,0 -0.08456,0.019 -0.08456,0.0423 0,0.0233 -0.03805,0.0423 -0.08455,0.0423 -0.04651,0 -0.08456,0.019 -0.08456,0.0423 0,0.0233 -0.05707,0.0423 -0.126832,0.0423 -0.06976,0 -0.126833,0.019 -0.126833,0.0423 0,0.0233 -0.03805,0.0423 -0.08456,0.0423 -0.04651,0 -0.08456,0.019 -0.08456,0.0423 0,0.0233 -0.05707,0.0423 -0.126832,0.0423 -0.06976,0 -0.126833,0.019 -0.126833,0.0423 0,0.0233 -0.03805,0.0423 -0.08456,0.0423 -0.0465,0 -0.08456,0.019 -0.08456,0.0423 0,0.0232 -0.05707,0.0423 -0.126832,0.0423 -0.06976,0 -0.126832,0.019 -0.126832,0.0423 0,0.0233 -0.05707,0.0423 -0.126833,0.0423 -0.06976,0 -0.126832,0.019 -0.126832,0.0423 0,0.0232 -0.0761,0.0423 -0.16911,0.0423 -0.09301,0 -0.16911,0.019 -0.16911,0.0423 0,0.0233 -0.0761,0.0423 -0.16911,0.0423 -0.09301,0 -0.16911,0.019 -0.16911,0.0423 0,0.0235 -0.11274,0.0423 -0.253665,0.0423 -0.140924,0 -0.253664,0.0188 -0.253664,0.0423 0,0.0233 -0.03805,0.0423 -0.08456,0.0423 -0.04651,0 -0.08456,-0.019 -0.08456,-0.0423 0,-0.0266 -0.28185,-0.0423 -0.760995,-0.0423 -0.479144,0 -0.760994,-0.0157 -0.760994,-0.0423 0,-0.0232 -0.05707,-0.0423 -0.126833,-0.0423 -0.06976,0 -0.126832,-0.019 -0.126832,-0.0423 0,-0.0233 -0.03805,-0.0423 -0.08456,-0.0423 -0.04651,0 -0.08456,-0.019 -0.08456,-0.0423 0,-0.0233 0.03805,-0.0423 0.08456,-0.0423 0.04651,0 0.08456,-0.0109 0.08456,-0.0242 0,-0.0668 -0.13566,-0.14495 -0.251758,-0.14495 -0.09873,0 -0.177512,-0.0465 -0.320101,-0.18914 -0.104024,-0.10402 -0.189136,-0.21397 -0.189136,-0.24433 0,-0.0303 -0.03805,-0.0826 -0.08456,-0.11614 -0.0465,-0.0335 -0.08456,-0.10494 -0.08456,-0.15871 0,-0.13348 0.26356,-0.39089 0.400227,-0.39089 0.05891,0 0.107103,-0.019 0.107103,-0.0423 0,-0.0232 0.0761,-0.0423 0.16911,-0.0423 0.09301,0 0.16911,-0.019 0.16911,-0.0423 0,-0.0254 0.16911,-0.0423 0.422775,-0.0423 0.253664,0 0.422774,-0.0169 0.422774,-0.0423 0,-0.0242 0.126833,-0.0423 0.295943,-0.0423 0.169109,0 0.295942,-0.0181 0.295942,-0.0423 0,-0.0232 0.09512,-0.0423 0.211387,-0.0423 0.116263,0 0.211388,-0.019 0.211388,-0.0423 0,-0.0233 0.0761,-0.0423 0.16911,-0.0423 0.09301,0 0.169109,-0.019 0.169109,-0.0423 0,-0.0233 0.05707,-0.0423 0.126833,-0.0423 0.06976,0 0.126832,-0.019 0.126832,-0.0423 0,-0.0233 0.05708,-0.0423 0.126833,-0.0423 0.06976,0 0.126832,-0.019 0.126832,-0.0423 0,-0.0233 0.05707,-0.0423 0.126833,-0.0423 0.06976,0 0.126832,-0.019 0.126832,-0.0423 0,-0.0232 0.03805,-0.0423 0.08456,-0.0423 0.0465,0 0.08455,-0.019 0.08455,-0.0423 0,-0.0233 0.05707,-0.0423 0.126832,-0.0423 0.06976,0 0.126833,-0.019 0.126833,-0.0423 0,-0.0233 0.03805,-0.0423 0.08455,-0.0423 0.04651,0 0.08456,-0.019 0.08456,-0.0423 0,-0.0232 0.03805,-0.0423 0.08456,-0.0423 0.0465,0 0.08455,-0.019 0.08455,-0.0423 0,-0.0233 0.03385,-0.0423 0.07522,-0.0423 0.04137,0 0.102647,-0.038 0.136166,-0.0845 0.03352,-0.0465 0.09479,-0.0846 0.136165,-0.0846 0.04137,0 0.07522,-0.019 0.07522,-0.0423 0,-0.0233 0.03805,-0.0423 0.08456,-0.0423 0.0465,0 0.08456,-0.019 0.08456,-0.04228 0,-0.02325 0.03385,-0.04228 0.07522,-0.04228 0.04137,0 0.102646,-0.03805 0.136165,-0.08455 0.03352,-0.04651 0.09059,-0.08455 0.126833,-0.08455 0.03624,0 0.09331,-0.03805 0.126832,-0.08456 0.03352,-0.04651 0.09479,-0.08455 0.136166,-0.08455 0.04137,0 0.07522,-0.01902 0.07522,-0.04228 0,-0.02325 0.03042,-0.04228 0.06759,-0.04228 0.03718,0 0.120909,-0.05707 0.186072,-0.126833 0.06516,-0.06976 0.139571,-0.126832 0.165348,-0.126832 0.06593,0 1.102977,-1.044221 1.102977,-1.110606 0,-0.02997 0.03805,-0.08192 0.08456,-0.115441 0.0465,-0.03352 0.08456,-0.08716 0.08456,-0.119203 0,-0.03204 0.05707,-0.111576 0.126832,-0.176739 0.06976,-0.06516 0.126832,-0.148896 0.126832,-0.186072 0,-0.03718 0.01903,-0.06759 0.04228,-0.06759 0.02325,0 0.04228,-0.03805 0.04228,-0.08455 0,-0.0465 0.01902,-0.08455 0.04228,-0.08455 0.02325,0 0.04228,-0.03805 0.04228,-0.08456 0,-0.0465 0.01902,-0.08455 0.04228,-0.08455 0.02325,0 0.04228,-0.03805 0.04228,-0.08455 0,-0.04651 0.01902,-0.08456 0.04228,-0.08456 0.02325,0 0.04228,-0.03805 0.04228,-0.08455 0,-0.0465 0.01903,-0.08455 0.04228,-0.08455 0.02325,0 0.04228,-0.03805 0.04228,-0.08456 0,-0.04651 0.01902,-0.08455 0.04228,-0.08455 0.02325,0 0.04228,-0.03805 0.04228,-0.08456 0,-0.04651 0.01902,-0.08455 0.04228,-0.08455 0.02325,0 0.04228,-0.05707 0.04228,-0.126833 0,-0.06976 0.01902,-0.126832 0.04228,-0.126832 0.02325,0 0.04228,-0.05707 0.04228,-0.126833 0,-0.06976 0.01902,-0.126832 0.04228,-0.126832 0.02325,0 0.04228,-0.0761 0.04228,-0.16911 0,-0.09301 0.01902,-0.16911 0.04228,-0.16911 0.02325,0 0.04228,-0.09512 0.04228,-0.211387 0,-0.116263 0.01902,-0.211387 0.04228,-0.211387 0.02416,0 0.04228,-0.126833 0.04228,-0.295943 0,-0.16911 0.01812,-0.295942 0.04228,-0.295942 0.02684,0 0.04228,-0.324128 0.04228,-0.887827 0,-0.5637 -0.01544,-0.887827 -0.04228,-0.887827 -0.02349,0 -0.04228,-0.11274 -0.04228,-0.253665 0,-0.140925 -0.01879,-0.253665 -0.04228,-0.253665 -0.02325,0 -0.04228,-0.09512 -0.04228,-0.211387 0,-0.116263 -0.01902,-0.211387 -0.04228,-0.211387 -0.02325,0 -0.04228,-0.0761 -0.04228,-0.16911 0,-0.09301 -0.01902,-0.16911 -0.04228,-0.16911 -0.02325,0 -0.04228,-0.0761 -0.04228,-0.16911 0,-0.09301 -0.01903,-0.16911 -0.04228,-0.16911 -0.02325,0 -0.04228,-0.05707 -0.04228,-0.126832 0,-0.06976 -0.01902,-0.126833 -0.04228,-0.126833 -0.02325,0 -0.04228,-0.03805 -0.04228,-0.08455 0,-0.04651 -0.01902,-0.08456 -0.04228,-0.08456 -0.02325,0 -0.04228,-0.05707 -0.04228,-0.126832 0,-0.06976 -0.01902,-0.126833 -0.04228,-0.126833 -0.02325,0 -0.04228,-0.03805 -0.04228,-0.08455 0,-0.04651 -0.01902,-0.08456 -0.04228,-0.08456 -0.02325,0 -0.04228,-0.05288 -0.04228,-0.1175 0,-0.069 -0.0349,-0.142654 -0.08456,-0.178443 -0.04651,-0.03352 -0.08456,-0.09479 -0.08456,-0.136165 0,-0.04137 -0.01902,-0.07522 -0.04228,-0.07522 -0.02325,0 -0.04228,-0.03805 -0.04228,-0.08455 0,-0.0465 -0.01902,-0.08456 -0.04228,-0.08456 -0.02325,0 -0.04228,-0.03805 -0.04228,-0.08455 0,-0.0465 -0.01902,-0.08455 -0.04228,-0.08455 -0.02325,0 -0.04228,-0.03385 -0.04228,-0.07522 0,-0.04137 -0.03805,-0.102646 -0.08455,-0.136165 -0.04651,-0.03352 -0.08456,-0.09059 -0.08456,-0.126833 0,-0.03624 -0.03805,-0.09331 -0.08456,-0.126832 -0.04651,-0.03352 -0.08456,-0.08677 -0.08456,-0.118342 0,-0.03157 -0.0761,-0.130513 -0.16911,-0.219878 -0.09301,-0.08936 -0.16911,-0.183218 -0.16911,-0.208564 0,-0.06015 -0.872774,-0.932928 -0.932927,-0.932928 -0.02535,0 -0.1192,-0.0761 -0.208565,-0.16911 -0.08936,-0.09301 -0.18831,-0.169109 -0.219878,-0.169109 -0.03157,0 -0.08482,-0.03805 -0.118342,-0.08456 -0.03352,-0.04651 -0.09059,-0.08455 -0.126832,-0.08455 -0.03624,0 -0.09331,-0.03805 -0.126832,-0.08455 -0.03352,-0.04651 -0.09479,-0.08456 -0.136166,-0.08456 -0.04137,0 -0.07522,-0.01902 -0.07522,-0.04228 0,-0.02325 -0.03385,-0.04228 -0.07522,-0.04228 -0.04137,0 -0.102646,-0.03805 -0.136165,-0.08455 -0.03352,-0.04651 -0.09479,-0.08456 -0.136166,-0.08456 -0.04137,0 -0.07522,-0.01902 -0.07522,-0.04228 0,-0.02325 -0.05707,-0.04228 -0.126832,-0.04228 -0.06976,0 -0.126832,-0.01902 -0.126832,-0.04228 0,-0.02325 -0.03805,-0.04228 -0.08455,-0.04228 -0.04651,0 -0.08456,-0.01902 -0.08456,-0.04228 0,-0.02325 -0.05707,-0.04228 -0.126833,-0.04228 -0.06976,0 -0.126832,-0.01902 -0.126832,-0.04228 0,-0.02325 -0.03805,-0.04228 -0.08456,-0.04228 -0.04651,0 -0.08456,-0.01902 -0.08456,-0.04228 0,-0.02325 -0.0761,-0.04228 -0.16911,-0.04228 -0.09301,0 -0.16911,-0.01902 -0.16911,-0.04228 0,-0.02325 -0.05707,-0.04228 -0.126832,-0.04228 -0.06976,0 -0.126833,-0.01902 -0.126833,-0.04228 0,-0.02325 -0.0761,-0.04228 -0.16911,-0.04228 -0.09301,0 -0.169109,-0.01902 -0.169109,-0.04228 0,-0.02349 -0.11274,-0.04228 -0.253665,-0.04228 -0.140925,0 -0.253665,-0.01879 -0.253665,-0.04228 0,-0.0271 -0.39459,-0.04228 -1.099214,-0.04228 -0.704625,0 -1.099215,0.01518 -1.099215,0.04228 0,0.02349 -0.11274,0.04228 -0.253665,0.04228 -0.140924,0 -0.253664,0.01879 -0.253664,0.04228 0,0.02325 -0.0761,0.04228 -0.16911,0.04228 -0.09301,0 -0.16911,0.01903 -0.16911,0.04228 0,0.02325 -0.05707,0.04228 -0.126833,0.04228 -0.06976,0 -0.126832,0.01902 -0.126832,0.04228 0,0.02325 -0.05708,0.04228 -0.126832,0.04228 -0.06976,0 -0.126833,0.01902 -0.126833,0.04228 0,0.02325 -0.05707,0.04228 -0.126832,0.04228 -0.06976,0 -0.126833,0.01902 -0.126833,0.04228 0,0.02325 -0.05707,0.04228 -0.126832,0.04228 -0.06976,0 -0.126833,0.01902 -0.126833,0.04228 0,0.02325 -0.03805,0.04228 -0.08455,0.04228 -0.04651,0 -0.08455,0.01902 -0.08455,0.04228 0,0.02325 -0.03805,0.04228 -0.08456,0.04228 -0.04651,0 -0.08456,0.01902 -0.08456,0.04228 0,0.02325 -0.03805,0.04228 -0.08456,0.04228 -0.0465,0 -0.08455,0.01902 -0.08455,0.04228 0,0.02325 -0.03805,0.04228 -0.08456,0.04228 -0.04651,0 -0.08456,0.01902 -0.08456,0.04228 0,0.02325 -0.03805,0.04228 -0.08456,0.04228 -0.0465,0 -0.08455,0.01902 -0.08455,0.04228 0,0.02325 -0.03805,0.04228 -0.08456,0.04228 -0.04651,0 -0.08456,0.01902 -0.08456,0.04228 0,0.02325 -0.03385,0.04228 -0.07522,0.04228 -0.04137,0 -0.102646,0.03805 -0.136165,0.08455 -0.03352,0.0465 -0.09479,0.08455 -0.136166,0.08455 -0.04137,0 -0.07522,0.01902 -0.07522,0.04228 0,0.02325 -0.03042,0.04228 -0.06759,0.04228 -0.03718,0 -0.120909,0.05707 -0.186072,0.126832 -0.06516,0.06976 -0.140876,0.126832 -0.168248,0.126832 -0.02737,0 -0.122885,0.0761 -0.21225,0.16911 -0.08936,0.09301 -0.183269,0.16911 -0.208677,0.16911 -0.05992,0 -0.763705,0.703254 -0.763705,0.763136 0,0.02509 -0.09512,0.13828 -0.211387,0.251524 -0.116263,0.113243 -0.211387,0.228037 -0.211387,0.255096 0,0.02706 -0.05708,0.102515 -0.126833,0.167678 -0.06976,0.06516 -0.126832,0.144696 -0.126832,0.176739 0,0.03204 -0.03805,0.08568 -0.08455,0.119204 -0.04651,0.03352 -0.08456,0.09479 -0.08456,0.136165 0,0.04137 -0.01902,0.07522 -0.04228,0.07522 -0.02325,0 -0.04228,0.03805 -0.04228,0.08455 0,0.0465 -0.01902,0.08456 -0.04228,0.08456 -0.02325,0 -0.04228,0.03805 -0.04228,0.08455 0,0.0465 -0.01902,0.08455 -0.04228,0.08455 -0.02325,0 -0.04228,0.03805 -0.04228,0.08456 0,0.0465 -0.01902,0.08455 -0.04228,0.08455 -0.02325,0 -0.04228,0.03805 -0.04228,0.08455 0,0.04651 -0.01902,0.08456 -0.04228,0.08456 -0.02325,0 -0.04228,0.03805 -0.04228,0.08455 0,0.04651 -0.01902,0.08455 -0.04228,0.08455 -0.02325,0 -0.04228,0.03805 -0.04228,0.08456 0,0.04651 -0.01902,0.08455 -0.04228,0.08455 -0.02325,0 -0.04228,0.05707 -0.04228,0.126833 0,0.06976 -0.01902,0.126832 -0.04228,0.126832 -0.02325,0 -0.04228,0.03805 -0.04228,0.08456 0,0.0465 -0.01902,0.08455 -0.04228,0.08455 -0.02325,0 -0.04228,0.05707 -0.04228,0.126832 0,0.06976 -0.01902,0.126833 -0.04228,0.126833 -0.02325,0 -0.04228,0.0761 -0.04228,0.16911 0,0.09301 -0.01902,0.16911 -0.04228,0.16911 -0.02325,0 -0.04228,0.0761 -0.04228,0.16911 0,0.09301 -0.01902,0.169109 -0.04228,0.169109 -0.02325,0 -0.04228,0.09512 -0.04228,0.211388 0,0.116263 -0.01902,0.211387 -0.04228,0.211387 -0.02446,0 -0.04228,0.134886 -0.04228,0.320101 0,0.221051 -0.01869,0.33879 -0.0604,0.380497 -0.08804,0.08804 -0.108713,0.07541 -0.108713,-0.06644 0,-0.06976 0.01902,-0.126832 0.04228,-0.126832 0.02349,0 0.04228,-0.11274 0.04228,-0.253665 0,-0.140925 -0.01879,-0.253665 -0.04228,-0.253665 -0.02325,0 -0.04228,-0.0761 -0.04228,-0.16911 0,-0.09301 0.01902,-0.16911 0.04228,-0.16911 0.02325,0 0.04228,-0.0761 0.04228,-0.169109 0,-0.09301 0.01902,-0.16911 0.04228,-0.16911 0.02325,0 0.04228,-0.0761 0.04228,-0.16911 0,-0.09301 0.01903,-0.16911 0.04228,-0.16911 0.02325,0 0.04228,-0.05708 0.04228,-0.126833 0,-0.06976 0.01902,-0.126832 0.04228,-0.126832 0.02325,0 0.04228,-0.05707 0.04228,-0.126832 0,-0.06976 0.01902,-0.126833 0.04228,-0.126833 0.02325,0 0.04228,-0.05707 0.04228,-0.126832 0,-0.06976 0.01902,-0.126833 0.04228,-0.126833 0.02325,0 0.04228,-0.03805 0.04228,-0.08455 0,-0.0465 -0.01902,-0.08456 -0.04228,-0.08456 -0.02325,0 -0.04228,0.03805 -0.04228,0.08456 0,0.04651 -0.01902,0.08455 -0.04228,0.08455 -0.02325,0 -0.04228,0.05707 -0.04228,0.126833 0,0.06976 -0.01902,0.126832 -0.04228,0.126832 -0.02325,0 -0.04228,0.03805 -0.04228,0.08456 0,0.0465 -0.01902,0.08455 -0.04228,0.08455 -0.02325,0 -0.04228,0.03805 -0.04228,0.08455 0,0.04651 -0.01902,0.08456 -0.04228,0.08456 -0.02325,0 -0.04228,0.09512 -0.04228,0.211387 0,0.116263 -0.01902,0.211388 -0.04228,0.211388 -0.02325,0 -0.04228,0.0761 -0.04228,0.16911 0,0.09301 -0.01902,0.169109 -0.04228,0.169109 -0.02349,0 -0.04228,0.112741 -0.04228,0.253665 0,0.140925 -0.01879,0.253665 -0.04228,0.253665 -0.02505,0 -0.04228,0.155018 -0.04228,0.380497 0,0.22548 -0.01722,0.380498 -0.04228,0.380498 -0.02325,0 -0.04228,0.09512 -0.04228,0.211387 0,0.116263 -0.01902,0.211387 -0.04228,0.211387 -0.02325,0 -0.04228,0.05708 -0.04228,0.126833 0,0.06976 0.01902,0.126832 0.04228,0.126832 0.02505,0 0.04228,0.155018 0.04228,0.380497 0,0.22548 0.01722,0.380498 0.04228,0.380498 0.02416,0 0.04228,0.126832 0.04228,0.295942 0,0.16911 0.01812,0.295942 0.04228,0.295942 0.02325,0 0.04228,0.09512 0.04228,0.211388 0,0.116263 0.01902,0.211387 0.04228,0.211387 0.02325,0 0.04228,0.05708 0.04228,0.126833 0,0.06976 0.01902,0.126832 0.04228,0.126832 0.02325,0 0.04228,0.05707 0.04228,0.126832 0,0.06976 0.01902,0.126833 0.04228,0.126833 0.02325,0 0.04228,0.05707 0.04228,0.126832 0,0.06976 0.01903,0.126833 0.04228,0.126833 0.02325,0 0.04228,0.05707 0.04228,0.126832 0,0.06976 0.01902,0.126832 0.04228,0.126832 0.02325,0 0.04228,0.03805 0.04228,0.08455 0,0.04651 0.01902,0.08456 0.04228,0.08456 0.02325,0 0.04228,0.05707 0.04228,0.126833 0,0.06976 0.01902,0.126832 0.04228,0.126832 0.02325,0 0.04228,0.03805 0.04228,0.08455 0,0.0465 0.01902,0.08455 0.04228,0.08455 0.02325,0 0.04228,0.05549 0.04228,0.12331 0,0.06782 0.02378,0.131802 0.05285,0.142182 0.02907,0.01038 0.03948,0.03326 0.02315,0.05083 -0.03973,0.04276 -0.160554,-0.08166 -0.160554,-0.165335 0,-0.03654 -0.01902,-0.06644 -0.04228,-0.06644 -0.02325,0 -0.04228,-0.05707 -0.04228,-0.126832 0,-0.06976 -0.01902,-0.126833 -0.04228,-0.126833 -0.02325,0 -0.04228,-0.03805 -0.04228,-0.08456 0,-0.0465 -0.01902,-0.08455 -0.04228,-0.08455 -0.02325,0 -0.04228,-0.03805 -0.04228,-0.08455 0,-0.04651 -0.01902,-0.08456 -0.04228,-0.08456 -0.02325,0 -0.04228,0.03805 -0.04228,0.08456 0,0.04651 0.01903,0.08455 0.04228,0.08455 0.02325,0 0.04228,0.05707 0.04228,0.126833 0,0.06976 0.01902,0.126832 0.04228,0.126832 0.02325,0 0.04228,0.03805 0.04228,0.08455 0,0.04651 0.01902,0.08456 0.04228,0.08456 0.02325,0 0.04228,0.03805 0.04228,0.08455 0,0.0465 -0.01902,0.08456 -0.04228,0.08456 -0.02325,0 -0.04228,-0.03385 -0.04228,-0.07522 0,-0.04137 -0.03805,-0.102646 -0.08456,-0.136165 -0.04651,-0.03352 -0.08456,-0.09479 -0.08456,-0.136166 0,-0.04137 -0.01902,-0.07522 -0.04228,-0.07522 -0.02325,0 -0.04228,-0.03805 -0.04228,-0.08456 0,-0.0465 -0.01902,-0.08455 -0.04228,-0.08455 -0.02325,0 -0.04228,-0.03805 -0.04228,-0.08455 0,-0.04651 -0.01902,-0.08456 -0.04228,-0.08456 -0.02325,0 -0.04228,-0.03805 -0.04228,-0.08455 0,-0.0465 -0.01902,-0.08455 -0.04228,-0.08455 -0.02325,0 -0.04228,-0.03805 -0.04228,-0.08456 0,-0.04651 -0.01902,-0.08455 -0.04228,-0.08455 -0.02325,0 -0.04228,-0.03805 -0.04228,-0.08456 0,-0.04651 -0.01902,-0.08455 -0.04228,-0.08455 -0.02325,0 -0.04228,-0.05707 -0.04228,-0.126833 0,-0.06976 -0.01902,-0.126832 -0.04228,-0.126832 -0.02325,0 -0.04228,-0.03805 -0.04228,-0.08455 0,-0.04651 -0.01902,-0.08456 -0.04228,-0.08456 -0.02325,0 -0.04228,-0.05707 -0.04228,-0.126832 0,-0.06976 -0.01902,-0.126833 -0.04228,-0.126833 -0.02325,0 -0.04228,-0.05707 -0.04228,-0.126832 0,-0.06976 -0.01902,-0.126833 -0.04228,-0.126833 -0.02349,0 -0.04228,-0.11274 -0.04228,-0.253665 0,-0.140924 -0.01879,-0.253664 -0.04228,-0.253664 -0.02537,0 -0.04228,-0.16911 -0.04228,-0.422775 0,-0.253665 0.01691,-0.422775 0.04228,-0.422775 0.02325,0 0.04228,-0.05707 0.04228,-0.126832 0,-0.06976 -0.01902,-0.126833 -0.04228,-0.126833 -0.02416,0 -0.04228,-0.126832 -0.04228,-0.295942 0,-0.16911 -0.01812,-0.295942 -0.04228,-0.295942 -0.02497,0 -0.04228,-0.151907 -0.04228,-0.371164 0,-0.322665 0.01105,-0.379128 0.08456,-0.432108 0.07464,-0.0538 0.08456,-0.109444 0.08456,-0.474386 0,-0.247443 0.01698,-0.413441 0.04228,-0.413441 0.02325,0 0.04228,-0.0761 0.04228,-0.16911 0,-0.09301 0.01902,-0.16911 0.04228,-0.16911 0.02325,0 0.04228,-0.0719 0.04228,-0.159777 0,-0.111277 0.02567,-0.178276 0.08456,-0.22072 0.04651,-0.03352 0.08456,-0.09059 0.08456,-0.126833 0,-0.03624 0.03805,-0.09331 0.08456,-0.126832 0.05889,-0.04245 0.08455,-0.109443 0.08455,-0.220721 0,-0.08788 0.01903,-0.159776 0.04228,-0.159776 0.02325,0 0.04228,-0.0761 0.04228,-0.16911 0,-0.09301 0.01902,-0.16911 0.04228,-0.16911 0.02325,0 0.04228,-0.05708 0.04228,-0.126833 0,-0.06976 0.01902,-0.126832 0.04228,-0.126832 0.02325,0 0.04228,-0.09512 0.04228,-0.211387 0,-0.116263 0.01902,-0.211388 0.04228,-0.211388 0.02325,0 0.04228,-0.03805 0.04228,-0.08456 0,-0.0465 0.01903,-0.08455 0.04228,-0.08455 0.02325,0 0.04228,-0.03042 0.04228,-0.06759 0,-0.03718 0.05707,-0.120909 0.126832,-0.186072 0.06976,-0.06516 0.126832,-0.140876 0.126832,-0.168248 0,-0.02737 0.0761,-0.122885 0.16911,-0.21225 0.09301,-0.08936 0.16911,-0.184232 0.16911,-0.210817 0,-0.02659 0.09513,-0.140991 0.211388,-0.254235 0.116263,-0.113244 0.211387,-0.227211 0.211387,-0.253261 0,-0.02605 0.114149,-0.159406 0.253665,-0.296346 0.139515,-0.13694 0.253665,-0.269333 0.253665,-0.294205 0,-0.0596 0.704026,-0.762732 0.763705,-0.762732 0.02541,0 0.119312,-0.0761 0.208677,-0.16911 0.08936,-0.09301 0.184876,-0.16911 0.212249,-0.16911 0.02737,0 0.103084,-0.05707 0.168248,-0.126832 0.06516,-0.06976 0.144696,-0.126833 0.176739,-0.126833 0.03204,0 0.08568,-0.03805 0.119203,-0.08455 0.03352,-0.04651 0.09479,-0.08455 0.136166,-0.08455 0.04137,0 0.07522,-0.01902 0.07522,-0.04228 0,-0.02325 0.03805,-0.04228 0.08455,-0.04228 0.04651,0 0.08456,-0.01902 0.08456,-0.04228 0,-0.02325 0.03805,-0.04228 0.08456,-0.04228 0.04651,0 0.08456,-0.01902 0.08456,-0.04228 0,-0.02325 0.03805,-0.04228 0.08455,-0.04228 0.04651,0 0.08456,-0.01902 0.08456,-0.04228 0,-0.02325 0.03805,-0.04228 0.08456,-0.04228 0.0465,0 0.08456,-0.01902 0.08456,-0.04228 0,-0.02325 0.05707,-0.04228 0.126832,-0.04228 0.06976,0 0.126833,-0.01902 0.126833,-0.04228 0,-0.02325 0.03805,-0.04228 0.08456,-0.04228 0.0465,0 0.08455,-0.01902 0.08455,-0.04228 0,-0.02325 0.05707,-0.04228 0.126832,-0.04228 0.06976,0 0.126833,-0.01902 0.126833,-0.04228 0,-0.02325 0.05707,-0.04228 0.126832,-0.04228 0.06976,0 0.126832,-0.01902 0.126832,-0.04228 0,-0.02325 0.0761,-0.04228 0.16911,-0.04228 0.09301,0 0.16911,-0.01902 0.16911,-0.04228 0,-0.02325 0.0761,-0.04228 0.16911,-0.04228 0.09301,0 0.16911,-0.01902 0.16911,-0.04228 0,-0.02325 0.0761,-0.04228 0.16911,-0.04228 0.09301,0 0.16911,-0.01902 0.16911,-0.04228 0,-0.02349 0.11274,-0.04228 0.253665,-0.04228 0.140924,0 0.253664,-0.01879 0.253664,-0.04228 0,-0.02466 0.140925,-0.04228 0.33822,-0.04228 0.197295,0 0.33822,-0.01762 0.33822,-0.04228 0,-0.02642 0.253665,-0.04228 0.67644,-0.04228 0.422774,0 0.676439,0.01585 0.676439,0.04228 z m -5.948038,3.151685 c -0.03599,0.03599 -0.05456,0.0763 -0.04127,0.08959 0.02435,0.02435 0.155018,-0.08595 0.155018,-0.130859 0,-0.04277 -0.04662,-0.02586 -0.113747,0.04127 z m -0.591884,0.507329 c -0.03599,0.03599 -0.05456,0.0763 -0.04127,0.08959 0.02435,0.02435 0.155017,-0.08596 0.155017,-0.130859 0,-0.04278 -0.04661,-0.02586 -0.113746,0.04127 z m -0.463406,0.550157 c -0.05954,0.05954 -0.09788,0.118633 -0.08519,0.131316 0.023,0.023 0.239573,-0.172731 0.239573,-0.216512 0,-0.04717 -0.04912,-0.02006 -0.154378,0.0852 z m -0.290945,0.03831 c -0.128138,0.128138 -0.193757,0.276212 -0.122403,0.276212 0.04622,0 0.144951,-0.121164 0.144951,-0.177895 0,-0.03141 0.03805,-0.08453 0.08456,-0.118047 0.07898,-0.05692 0.113154,-0.126832 0.06201,-0.126832 -0.0124,0 -0.0885,0.06595 -0.16911,0.146562 z m 0.02255,0.31849 c 0,0.02325 0.01902,0.04228 0.04228,0.04228 0.02325,0 0.04228,-0.01902 0.04228,-0.04228 0,-0.02325 -0.01902,-0.04228 -0.04228,-0.04228 -0.02325,0 -0.04228,0.01902 -0.04228,0.04228 z m -1.521989,7.591826 c 0,0.116462 0.1114,0.260515 0.160554,0.207613 0.01633,-0.01758 0.0059,-0.04045 -0.02315,-0.05083 -0.02907,-0.01038 -0.05285,-0.07436 -0.05285,-0.142183 0,-0.06782 -0.01902,-0.123309 -0.04228,-0.123309 -0.02325,0 -0.04228,0.04892 -0.04228,0.108713 z m -0.16911,-6.746277 c 0,0.02325 -0.01902,0.04228 -0.04228,0.04228 -0.02325,0 -0.04228,-0.01902 -0.04228,-0.04228 0,-0.02325 0.01902,-0.04228 0.04228,-0.04228 0.02325,0 0.04228,0.01902 0.04228,0.04228 z m -0.08455,0.211388 c 0,0.04651 -0.01902,0.08456 -0.04228,0.08456 -0.02325,0 -0.04228,-0.03805 -0.04228,-0.08456 0,-0.0465 0.01902,-0.08455 0.04228,-0.08455 0.02325,0 0.04228,0.03805 0.04228,0.08455 z m -0.08456,0.253665 c 0,0.04651 -0.01902,0.08456 -0.04228,0.08456 -0.02325,0 -0.04228,-0.03805 -0.04228,-0.08456 0,-0.04651 0.01902,-0.08455 0.04228,-0.08455 0.02325,0 0.04228,0.03805 0.04228,0.08455 z m -0.08456,0.211387 c 0,0.02325 -0.01902,0.04228 -0.04228,0.04228 -0.02325,0 -0.04228,-0.01902 -0.04228,-0.04228 0,-0.02325 0.01902,-0.04228 0.04228,-0.04228 0.02325,0 0.04228,0.01902 0.04228,0.04228 z m -0.08456,0.253665 c 0,0.02325 -0.01902,0.04228 -0.04228,0.04228 -0.02325,0 -0.04228,-0.01902 -0.04228,-0.04228 0,-0.02325 0.01902,-0.04228 0.04228,-0.04228 0.02325,0 0.04228,0.01902 0.04228,0.04228 z m 0.50733,2.029319 c 0,0.02325 -0.01902,0.04228 -0.04228,0.04228 -0.02325,0 -0.04228,-0.01902 -0.04228,-0.04228 0,-0.02325 0.01902,-0.04228 0.04228,-0.04228 0.02325,0 0.04228,0.01902 0.04228,0.04228 z m 0.253665,3.043978 c 0,0.02325 -0.01902,0.04228 -0.04228,0.04228 -0.02325,0 -0.04228,-0.01902 -0.04228,-0.04228 0,-0.02325 0.01903,-0.04228 0.04228,-0.04228 0.02325,0 0.04228,0.01902 0.04228,0.04228 z m -0.391067,1.289286 c 0.02907,0.03301 0.05285,0.08516 0.05285,0.115891 0,0.03073 0.03805,0.08329 0.08456,0.116812 0.0465,0.03352 0.08456,0.08716 0.08456,0.119203 0,0.03204 0.05707,0.111575 0.126832,0.176739 0.06976,0.06516 0.126833,0.148896 0.126833,0.186072 0,0.03718 0.01902,0.06759 0.04228,0.06759 0.02325,0 0.04228,0.03805 0.04228,0.08455 0,0.0465 0.01902,0.08455 0.04228,0.08455 0.02325,0 0.04228,0.0719 0.04228,0.159776 0,0.111278 0.02567,0.178276 0.08456,0.220721 0.04651,0.03352 0.08456,0.08716 0.08456,0.119203 0,0.03204 0.05707,0.111576 0.126833,0.176739 0.06976,0.06516 0.126832,0.139885 0.126832,0.166046 0,0.06127 0.363581,0.425839 0.424682,0.425839 0.0683,0 0.167203,0.110747 0.167203,0.187229 0,0.03654 0.01902,0.06644 0.04228,0.06644 0.02325,0 0.04228,0.01902 0.04228,0.04228 0,0.02325 -0.02889,0.04228 -0.0642,0.04228 -0.07301,0 -0.612241,-0.523533 -0.612241,-0.594417 0,-0.02551 -0.0761,-0.119491 -0.16911,-0.208855 -0.09301,-0.08937 -0.16911,-0.18831 -0.16911,-0.219879 0,-0.03157 -0.03805,-0.08482 -0.08456,-0.118341 -0.0465,-0.03352 -0.08456,-0.09479 -0.08456,-0.136166 0,-0.04137 -0.01902,-0.07522 -0.04228,-0.07522 -0.02325,0 -0.04228,-0.03385 -0.04228,-0.07522 0,-0.04137 -0.03805,-0.102647 -0.08456,-0.136166 -0.04651,-0.03352 -0.08456,-0.09479 -0.08456,-0.136165 0,-0.04137 -0.01902,-0.07522 -0.04228,-0.07522 -0.02325,0 -0.04228,-0.03385 -0.04228,-0.07522 0,-0.04137 -0.03805,-0.102646 -0.08456,-0.136166 -0.04651,-0.03352 -0.08456,-0.09479 -0.08456,-0.136165 0,-0.04137 -0.01902,-0.07522 -0.04228,-0.07522 -0.02325,0 -0.04228,-0.05707 -0.04228,-0.126832 0,-0.06976 -0.01902,-0.126833 -0.04228,-0.126833 -0.02325,0 -0.04228,-0.03805 -0.04228,-0.08456 0,-0.09843 0.04165,-0.106064 0.116263,-0.02132 z m 0.898396,0.909142 c 0,0.06976 -0.01902,0.126833 -0.04228,0.126833 -0.02325,0 -0.04228,-0.05707 -0.04228,-0.126833 0,-0.06976 0.01902,-0.126832 0.04228,-0.126832 0.02325,0 0.04228,0.05707 0.04228,0.126832 z m 1.088645,0.911043 c 0.09882,0.102409 0.179679,0.205974 0.179679,0.230145 0,0.06929 0.625544,0.676744 0.696897,0.676744 0.03591,0 0.0641,0.03718 0.0641,0.08456 0,0.0493 0.02819,0.0846 0.06759,0.0846 0.03718,0 0.120908,0.0571 0.186072,0.12683 0.06516,0.0698 0.144696,0.12684 0.176739,0.12684 0.03204,0 0.08568,0.038 0.119203,0.0845 0.03352,0.0465 0.08664,0.0846 0.118047,0.0846 0.07654,0 0.196229,0.12317 0.156002,0.16055 -0.01758,0.0163 -0.04045,0.006 -0.05083,-0.0232 -0.01038,-0.0291 -0.05114,-0.0528 -0.09057,-0.0528 -0.03944,0 -0.09912,-0.038 -0.132643,-0.0846 -0.03352,-0.0465 -0.09059,-0.0846 -0.126832,-0.0846 -0.03624,0 -0.09331,-0.038 -0.126833,-0.0845 -0.03352,-0.0465 -0.08545,-0.0846 -0.115411,-0.0846 -0.07111,0 -1.19519,-1.124137 -1.19519,-1.195245 0,-0.02996 -0.03805,-0.08189 -0.08456,-0.115411 -0.08402,-0.06056 -0.113511,-0.129631 -0.05285,-0.123769 0.01744,0.0017 0.112564,0.08685 0.211387,0.189262 z m 0.264234,1.202822 c 0,0.0233 0.03805,0.0423 0.08456,0.0423 0.04651,0 0.08456,0.019 0.08456,0.0423 0,0.0233 0.03385,0.0423 0.07522,0.0423 0.04137,0 0.102646,0.038 0.136166,0.0845 0.03352,0.0465 0.08591,0.0846 0.116436,0.0846 0.06916,0 0.366277,0.29237 0.331973,0.32667 -0.0138,0.0138 -0.06074,-0.016 -0.104311,-0.0662 -0.04357,-0.0502 -0.110275,-0.0913 -0.148239,-0.0913 -0.03796,0 -0.06903,-0.019 -0.06903,-0.0423 0,-0.0232 -0.03042,-0.0423 -0.06759,-0.0423 -0.03718,0 -0.120908,-0.0571 -0.186072,-0.12683 -0.06516,-0.0698 -0.140742,-0.12683 -0.167953,-0.12683 -0.05078,0 -0.170267,-0.10173 -0.170267,-0.14495 0,-0.0133 0.01903,-0.0242 0.04228,-0.0242 0.02325,0 0.04228,0.019 0.04228,0.0423 z"
         id="path184" />
    </g>
    <text
       xml:space="preserve"
       style="font-style:normal;font-variant:normal;font-weight:normal;font-stretch:normal;font-size:8.86797px;line-height:1.25;font-family:'Manga Temple';-inkscape-font-specification:'Manga Temple, Normal';font-variant-ligatures:normal;font-variant-caps:normal;font-variant-numeric:normal;font-variant-east-asian:normal;letter-spacing:0px;fill:#ffffff;stroke:#000000;stroke-width:0.221699;stroke-opacity:1"
       x="50.692436"
       y="92.571365"
       id="text190"><tspan
         x="50.692436"
         y="92.571365"
         style="font-style:normal;font-variant:normal;font-weight:normal;font-stretch:normal;font-size:8.86797px;font-family:'Manga Temple';-inkscape-font-specification:'Manga Temple, Normal';font-variant-ligatures:normal;font-variant-caps:normal;font-variant-numeric:normal;font-variant-east-asian:normal;fill:#ffffff;stroke:#000000;stroke-width:0.221699;stroke-opacity:1"
         id="tspan192"
         sodipodi:role="line">Italy</tspan></text>
    <text
       xml:space="preserve"
       style="font-style:normal;font-variant:normal;font-weight:normal;font-stretch:normal;font-size:5.02543px;line-height:1.25;font-family:'Manga Temple';-inkscape-font-specification:'Manga Temple, Normal';font-variant-ligatures:normal;font-variant-caps:normal;font-variant-numeric:normal;font-variant-east-asian:normal;letter-spacing:0px;fill:#ffffff;stroke:#000000;stroke-width:0.125637;stroke-opacity:1"
       x="65.360474"
       y="97.171684"
       id="text198"><tspan
         sodipodi:role="line"
         id="tspan196"
         x="65.360474"
         y="97.171684"
         style="font-style:normal;font-variant:normal;font-weight:normal;font-stretch:normal;font-size:5.02543px;font-family:'Manga Temple';-inkscape-font-specification:'Manga Temple, Normal';font-variant-ligatures:normal;font-variant-caps:normal;font-variant-numeric:normal;font-variant-east-asian:normal;fill:#ffffff;stroke:#000000;stroke-width:0.125637;stroke-opacity:1">PDX</tspan></text>
  </g>
</svg>
